<?xml version="1.0" encoding="UTF-8" standalone="no"?>
<!DOCTYPE svg PUBLIC "-//W3C//DTD SVG 1.1//EN" "http://www.w3.org/Graphics/SVG/1.1/DTD/svg11.dtd">
<svg xmlns="http://www.w3.org/2000/svg" xmlns:xlink="http://www.w3.org/1999/xlink" version="1.1" width="779.04pt" height="269.04pt" viewBox="0 0 779.04 269.04">
<g enable-background="new">
<clipPath id="cp0">
<path transform="matrix(.24,0,0,.24,0,0)" d="M 0 0 L 3245.833 0 L 3245.833 1117.9093 L 0 1117.9093 Z " fill-rule="evenodd"/>
</clipPath>
<g clip-path="url(#cp0)">
<path transform="matrix(.7192982,0,0,.7192982,0,0)" d="M 0 0 L 1083 0 L 1083 373 L 0 373 Z " fill="#ffffff"/>
</g>
<clipPath id="cp1">
<path transform="matrix(.24,0,0,.24,0,0)" d="M 0 0 L 3245.833 0 L 3245.833 1117.9093 L 0 1117.9093 Z " fill-rule="evenodd"/>
</clipPath>
<g clip-path="url(#cp1)">
<path transform="matrix(-.7192982,.00000000000000008808863,-.00000000000000008808863,-.7192982,778.64028,311.09645)" d="M 557.5 352 L 1 352 L 1 61 L 1081 61 L 1081 352 L 576.5 352 L 548 371 L 557.5 352 Z " fill="#ffffff"/>
<path transform="matrix(-.7192982,.00000000000000008808863,-.00000000000000008808863,-.7192982,778.64028,311.09645)" d="M 551.5 352.5 L 548.5 352.5 L 548.5 351.5 L 551.5 351.5 L 551.5 352.5 Z M 545.5 352.5 L 542.5 352.5 L 542.5 351.5 L 545.5 351.5 L 545.5 352.5 Z M 539.5 352.5 L 536.5 352.5 L 536.5 351.5 L 539.5 351.5 L 539.5 352.5 Z M 533.5 352.5 L 530.5 352.5 L 530.5 351.5 L 533.5 351.5 L 533.5 352.5 Z M 527.5 352.5 L 524.5 352.5 L 524.5 351.5 L 527.5 351.5 L 527.5 352.5 Z M 521.5 352.5 L 518.5 352.5 L 518.5 351.5 L 521.5 351.5 L 521.5 352.5 Z M 515.5 352.5 L 512.5 352.5 L 512.5 351.5 L 515.5 351.5 L 515.5 352.5 Z M 509.5 352.5 L 506.5 352.5 L 506.5 351.5 L 509.5 351.5 L 509.5 352.5 Z M 503.5 352.5 L 500.5 352.5 L 500.5 351.5 L 503.5 351.5 L 503.5 352.5 Z M 497.5 352.5 L 494.5 352.5 L 494.5 351.5 L 497.5 351.5 L 497.5 352.5 Z M 491.5 352.5 L 488.5 352.5 L 488.5 351.5 L 491.5 351.5 L 491.5 352.5 Z M 485.5 352.5 L 482.5 352.5 L 482.5 351.5 L 485.5 351.5 L 485.5 352.5 Z M 479.5 352.5 L 476.5 352.5 L 476.5 351.5 L 479.5 351.5 L 479.5 352.5 Z M 473.5 352.5 L 470.5 352.5 L 470.5 351.5 L 473.5 351.5 L 473.5 352.5 Z M 467.5 352.5 L 464.5 352.5 L 464.5 351.5 L 467.5 351.5 L 467.5 352.5 Z M 461.5 352.5 L 458.5 352.5 L 458.5 351.5 L 461.5 351.5 L 461.5 352.5 Z M 455.5 352.5 L 452.5 352.5 L 452.5 351.5 L 455.5 351.5 L 455.5 352.5 Z M 449.5 352.5 L 446.5 352.5 L 446.5 351.5 L 449.5 351.5 L 449.5 352.5 Z M 443.5 352.5 L 440.5 352.5 L 440.5 351.5 L 443.5 351.5 L 443.5 352.5 Z M 437.5 352.5 L 434.5 352.5 L 434.5 351.5 L 437.5 351.5 L 437.5 352.5 Z M 431.5 352.5 L 428.5 352.5 L 428.5 351.5 L 431.5 351.5 L 431.5 352.5 Z M 425.5 352.5 L 422.5 352.5 L 422.5 351.5 L 425.5 351.5 L 425.5 352.5 Z M 419.5 352.5 L 416.5 352.5 L 416.5 351.5 L 419.5 351.5 L 419.5 352.5 Z M 413.5 352.5 L 410.5 352.5 L 410.5 351.5 L 413.5 351.5 L 413.5 352.5 Z M 407.5 352.5 L 404.5 352.5 L 404.5 351.5 L 407.5 351.5 L 407.5 352.5 Z M 401.5 352.5 L 398.5 352.5 L 398.5 351.5 L 401.5 351.5 L 401.5 352.5 Z M 395.5 352.5 L 392.5 352.5 L 392.5 351.5 L 395.5 351.5 L 395.5 352.5 Z M 389.5 352.5 L 386.5 352.5 L 386.5 351.5 L 389.5 351.5 L 389.5 352.5 Z M 383.5 352.5 L 380.5 352.5 L 380.5 351.5 L 383.5 351.5 L 383.5 352.5 Z M 377.5 352.5 L 374.5 352.5 L 374.5 351.5 L 377.5 351.5 L 377.5 352.5 Z M 371.5 352.5 L 368.5 352.5 L 368.5 351.5 L 371.5 351.5 L 371.5 352.5 Z M 365.5 352.5 L 362.5 352.5 L 362.5 351.5 L 365.5 351.5 L 365.5 352.5 Z M 359.5 352.5 L 356.5 352.5 L 356.5 351.5 L 359.5 351.5 L 359.5 352.5 Z M 353.5 352.5 L 350.5 352.5 L 350.5 351.5 L 353.5 351.5 L 353.5 352.5 Z M 347.5 352.5 L 344.5 352.5 L 344.5 351.5 L 347.5 351.5 L 347.5 352.5 Z M 341.5 352.5 L 338.5 352.5 L 338.5 351.5 L 341.5 351.5 L 341.5 352.5 Z M 335.5 352.5 L 332.5 352.5 L 332.5 351.5 L 335.5 351.5 L 335.5 352.5 Z M 329.5 352.5 L 326.5 352.5 L 326.5 351.5 L 329.5 351.5 L 329.5 352.5 Z M 323.5 352.5 L 320.5 352.5 L 320.5 351.5 L 323.5 351.5 L 323.5 352.5 Z M 317.5 352.5 L 314.5 352.5 L 314.5 351.5 L 317.5 351.5 L 317.5 352.5 Z M 311.5 352.5 L 308.5 352.5 L 308.5 351.5 L 311.5 351.5 L 311.5 352.5 Z M 305.5 352.5 L 302.5 352.5 L 302.5 351.5 L 305.5 351.5 L 305.5 352.5 Z M 299.5 352.5 L 296.5 352.5 L 296.5 351.5 L 299.5 351.5 L 299.5 352.5 Z M 293.5 352.5 L 290.5 352.5 L 290.5 351.5 L 293.5 351.5 L 293.5 352.5 Z M 287.5 352.5 L 284.5 352.5 L 284.5 351.5 L 287.5 351.5 L 287.5 352.5 Z M 281.5 352.5 L 278.5 352.5 L 278.5 351.5 L 281.5 351.5 L 281.5 352.5 Z M 275.5 352.5 L 272.5 352.5 L 272.5 351.5 L 275.5 351.5 L 275.5 352.5 Z M 269.5 352.5 L 266.5 352.5 L 266.5 351.5 L 269.5 351.5 L 269.5 352.5 Z M 263.5 352.5 L 260.5 352.5 L 260.5 351.5 L 263.5 351.5 L 263.5 352.5 Z M 257.5 352.5 L 254.49997 352.5 L 254.49997 351.5 L 257.5 351.5 L 257.5 352.5 Z M 251.5 352.5 L 248.5 352.5 L 248.5 351.5 L 251.5 351.5 L 251.5 352.5 Z M 245.5 352.5 L 242.5 352.5 L 242.5 351.5 L 245.5 351.5 L 245.5 352.5 Z M 239.5 352.5 L 236.5 352.5 L 236.5 351.5 L 239.5 351.5 L 239.5 352.5 Z M 233.5 352.5 L 230.5 352.5 L 230.5 351.5 L 233.5 351.5 L 233.5 352.5 Z M 227.5 352.5 L 224.5 352.5 L 224.5 351.5 L 227.5 351.5 L 227.5 352.5 Z M 221.5 352.5 L 218.5 352.5 L 218.5 351.5 L 221.5 351.5 L 221.5 352.5 Z M 215.5 352.5 L 212.50003 352.5 L 212.50003 351.5 L 215.5 351.5 L 215.5 352.5 Z M 209.5 352.5 L 206.5 352.5 L 206.5 351.5 L 209.5 351.5 L 209.5 352.5 Z M 203.5 352.5 L 200.5 352.5 L 200.5 351.5 L 203.5 351.5 L 203.5 352.5 Z M 197.5 352.5 L 194.5 352.5 L 194.5 351.5 L 197.5 351.5 L 197.5 352.5 Z M 191.5 352.5 L 188.5 352.5 L 188.5 351.5 L 191.5 351.5 L 191.5 352.5 Z M 185.5 352.5 L 182.5 352.5 L 182.5 351.5 L 185.5 351.5 L 185.5 352.5 Z M 179.5 352.5 L 176.5 352.5 L 176.5 351.5 L 179.5 351.5 L 179.5 352.5 Z M 173.5 352.5 L 170.50003 352.5 L 170.50003 351.5 L 173.5 351.5 L 173.5 352.5 Z M 167.5 352.5 L 164.5 352.5 L 164.5 351.5 L 167.5 351.5 L 167.5 352.5 Z M 161.5 352.5 L 158.5 352.5 L 158.5 351.5 L 161.5 351.5 L 161.5 352.5 Z M 155.49997 352.5 L 152.5 352.5 L 152.5 351.5 L 155.49997 351.5 L 155.49997 352.5 Z M 149.5 352.5 L 146.5 352.5 L 146.5 351.5 L 149.5 351.5 L 149.5 352.5 Z M 143.5 352.5 L 140.5 352.5 L 140.5 351.5 L 143.5 351.5 L 143.5 352.5 Z M 137.5 352.5 L 134.5 352.5 L 134.5 351.5 L 137.5 351.5 L 137.5 352.5 Z M 131.5 352.5 L 128.5 352.5 L 128.5 351.5 L 131.5 351.5 L 131.5 352.5 Z M 125.5 352.5 L 122.5 352.5 L 122.5 351.5 L 125.5 351.5 L 125.5 352.5 Z M 119.5 352.5 L 116.5 352.5 L 116.5 351.5 L 119.5 351.5 L 119.5 352.5 Z M 113.49997 352.5 L 110.5 352.5 L 110.5 351.5 L 113.49997 351.5 L 113.49997 352.5 Z M 107.5 352.5 L 104.5 352.5 L 104.5 351.5 L 107.5 351.5 L 107.5 352.5 Z M 101.5 352.5 L 98.5 352.5 L 98.5 351.5 L 101.5 351.5 L 101.5 352.5 Z M 95.5 352.5 L 92.5 352.5 L 92.5 351.5 L 95.5 351.5 L 95.5 352.5 Z M 89.5 352.5 L 86.5 352.5 L 86.5 351.5 L 89.5 351.5 L 89.5 352.5 Z M 83.5 352.5 L 80.5 352.5 L 80.5 351.5 L 83.5 351.5 L 83.5 352.5 Z M 77.5 352.5 L 74.5 352.5 L 74.5 351.5 L 77.5 351.5 L 77.5 352.5 Z M 71.50003 352.5 L 68.5 352.5 L 68.5 351.5 L 71.50003 351.5 L 71.50003 352.5 Z M 65.5 352.5 L 62.5 352.5 L 62.5 351.5 L 65.5 351.5 L 65.5 352.5 Z M 59.5 352.5 L 56.5 352.5 L 56.5 351.5 L 59.5 351.5 L 59.5 352.5 Z M 53.5 352.5 L 50.5 352.5 L 50.5 351.5 L 53.5 351.5 L 53.5 352.5 Z M 47.5 352.5 L 44.5 352.5 L 44.5 351.5 L 47.5 351.5 L 47.5 352.5 Z M 41.5 352.5 L 38.5 352.5 L 38.5 351.5 L 41.5 351.5 L 41.5 352.5 Z M 35.5 352.5 L 32.5 352.5 L 32.5 351.5 L 35.5 351.5 L 35.5 352.5 Z M 29.5 352.5 L 26.5 352.5 L 26.5 351.5 L 29.5 351.5 L 29.5 352.5 Z M 23.5 352.5 L 20.5 352.5 L 20.5 351.5 L 23.5 351.5 L 23.5 352.5 Z M 17.5 352.5 L 14.5 352.5 L 14.5 351.5 L 17.5 351.5 L 17.5 352.5 Z M 11.5 352.5 L 8.5 352.5 L 8.5 351.5 L 11.5 351.5 L 11.5 352.5 Z M 5.5 352.5 L 2.5 352.5 L 2.5 351.5 L 5.5 351.5 L 5.5 352.5 Z M .5 350.5 L .5 347.5 L 1.5 347.5 L 1.5 350.5 L .5 350.5 Z M .5 344.5 L .5 341.5 L 1.5 341.5 L 1.5 344.5 L .5 344.5 Z M .5 338.5 L .5 335.5 L 1.5 335.5 L 1.5 338.5 L .5 338.5 Z M .5 332.5 L .5 329.5 L 1.5 329.5 L 1.5 332.5 L .5 332.5 Z M .5 326.5 L .5 323.5 L 1.5 323.5 L 1.5 326.5 L .5 326.5 Z M .5 320.5 L .5 317.5 L 1.5 317.5 L 1.5 320.5 L .5 320.5 Z M .5 314.5 L .5 311.5 L 1.5 311.5 L 1.5 314.5 L .5 314.5 Z M .5 308.5 L .5 305.5 L 1.5 305.5 L 1.5 308.5 L .5 308.5 Z M .5 302.5 L .5 299.5 L 1.5 299.5 L 1.5 302.5 L .5 302.5 Z M .5 296.5 L .5 293.5 L 1.5 293.5 L 1.5 296.5 L .5 296.5 Z M .5 290.5 L .5 287.5 L 1.5 287.5 L 1.5 290.5 L .5 290.5 Z M .5 284.5 L .5 281.5 L 1.5 281.5 L 1.5 284.5 L .5 284.5 Z M .5 278.5 L .5 275.5 L 1.5 275.5 L 1.5 278.5 L .5 278.5 Z M .5 272.5 L .5 269.5 L 1.5 269.5 L 1.5 272.5 L .5 272.5 Z M .5 266.5 L .5 263.5 L 1.5 263.5 L 1.5 266.5 L .5 266.5 Z M .5 260.5 L .5 257.5 L 1.5 257.5 L 1.5 260.5 L .5 260.5 Z M .5 254.5 L .5 251.5 L 1.5 251.5 L 1.5 254.5 L .5 254.5 Z M .5 248.5 L .5 245.5 L 1.5 245.5 L 1.5 248.5 L .5 248.5 Z M .5 242.5 L .5 239.5 L 1.5 239.5 L 1.5 242.5 L .5 242.5 Z M .5 236.5 L .5 233.5 L 1.5 233.5 L 1.5 236.5 L .5 236.5 Z M .5 230.5 L .5 227.5 L 1.5 227.5 L 1.5 230.5 L .5 230.5 Z M .5 224.5 L .5 221.5 L 1.5 221.5 L 1.5 224.5 L .5 224.5 Z M .5 218.5 L .5 215.5 L 1.5 215.5 L 1.5 218.5 L .5 218.5 Z M .5 212.5 L .5 209.5 L 1.5 209.5 L 1.5 212.5 L .5 212.5 Z M .5 206.5 L .5 203.5 L 1.5 203.5 L 1.5 206.5 L .5 206.5 Z M .5 200.5 L .5 197.5 L 1.5 197.5 L 1.5 200.5 L .5 200.5 Z M .5 194.5 L .5 191.5 L 1.5 191.5 L 1.5 194.5 L .5 194.5 Z M .5 188.5 L .5 185.5 L 1.5 185.5 L 1.5 188.5 L .5 188.5 Z M .5 182.5 L .5 179.5 L 1.5 179.5 L 1.5 182.5 L .5 182.5 Z M .5 176.5 L .5 173.5 L 1.5 173.5 L 1.5 176.5 L .5 176.5 Z M .5 170.5 L .5 167.5 L 1.5 167.5 L 1.5 170.5 L .5 170.5 Z M .5 164.5 L .5 161.5 L 1.5 161.5 L 1.5 164.5 L .5 164.5 Z M .5 158.5 L .5 155.5 L 1.5 155.5 L 1.5 158.5 L .5 158.5 Z M .5 152.5 L .5 149.5 L 1.5 149.5 L 1.5 152.5 L .5 152.5 Z M .5 146.5 L .5 143.5 L 1.5 143.5 L 1.5 146.5 L .5 146.5 Z M .5 140.5 L .5 137.5 L 1.5 137.5 L 1.5 140.5 L .5 140.5 Z M .5 134.5 L .5 131.5 L 1.5 131.5 L 1.5 134.5 L .5 134.5 Z M .5 128.5 L .5 125.5 L 1.5 125.5 L 1.5 128.5 L .5 128.5 Z M .5 122.5 L .5 119.5 L 1.5 119.5 L 1.5 122.5 L .5 122.5 Z M .5 116.5 L .5 113.5 L 1.5 113.5 L 1.5 116.5 L .5 116.5 Z M .5 110.5 L .5 107.5 L 1.5 107.5 L 1.5 110.5 L .5 110.5 Z M .5 104.5 L .5 101.5 L 1.5 101.5 L 1.5 104.5 L .5 104.5 Z M .5 98.5 L .5 95.5 L 1.5 95.5 L 1.5 98.5 L .5 98.5 Z M .5 92.5 L .5 89.5 L 1.5 89.5 L 1.5 92.5 L .5 92.5 Z M .5 86.5 L .5 83.5 L 1.5 83.5 L 1.5 86.5 L .5 86.5 Z M .5 80.5 L .5 77.5 L 1.5 77.5 L 1.5 80.5 L .5 80.5 Z M .5 74.5 L .5 71.5 L 1.5 71.5 L 1.5 74.5 L .5 74.5 Z M .5 68.5 L .5 65.5 L 1.5 65.5 L 1.5 68.5 L .5 68.5 Z M .5 62.5 L .5 60.5 L 2.5 60.5 L 2.5 61.5 L 1 61.5 L 1 61 L 1.5 61 L 1.5 62.5 L .5 62.5 Z M 5.5 60.5 L 8.5 60.5 L 8.5 61.5 L 5.5 61.5 L 5.5 60.5 Z M 11.5 60.5 L 14.5 60.5 L 14.5 61.5 L 11.5 61.5 L 11.5 60.5 Z M 17.5 60.5 L 20.5 60.5 L 20.5 61.5 L 17.5 61.5 L 17.5 60.5 Z M 23.5 60.5 L 26.5 60.5 L 26.5 61.5 L 23.5 61.5 L 23.5 60.5 Z M 29.5 60.5 L 32.5 60.5 L 32.5 61.5 L 29.5 61.5 L 29.5 60.5 Z M 35.500005 60.5 L 38.5 60.5 L 38.5 61.5 L 35.500005 61.5 L 35.500005 60.5 Z M 41.5 60.5 L 44.5 60.5 L 44.5 61.5 L 41.5 61.5 L 41.5 60.5 Z M 47.5 60.5 L 50.5 60.5 L 50.5 61.5 L 47.5 61.5 L 47.5 60.5 Z M 53.5 60.5 L 56.5 60.5 L 56.5 61.5 L 53.5 61.5 L 53.5 60.5 Z M 59.5 60.5 L 62.5 60.5 L 62.5 61.5 L 59.5 61.5 L 59.5 60.5 Z M 65.5 60.5 L 68.5 60.5 L 68.5 61.5 L 65.5 61.5 L 65.5 60.5 Z M 71.5 60.5 L 74.5 60.5 L 74.5 61.5 L 71.5 61.5 L 71.5 60.5 Z M 77.5 60.5 L 80.5 60.5 L 80.5 61.5 L 77.5 61.5 L 77.5 60.5 Z M 83.5 60.5 L 86.5 60.5 L 86.5 61.5 L 83.5 61.5 L 83.5 60.5 Z M 89.5 60.5 L 92.5 60.5 L 92.5 61.5 L 89.5 61.5 L 89.5 60.5 Z M 95.5 60.5 L 98.5 60.5 L 98.5 61.5 L 95.5 61.5 L 95.5 60.5 Z M 101.5 60.5 L 104.5 60.5 L 104.5 61.5 L 101.5 61.5 L 101.5 60.5 Z M 107.5 60.5 L 110.5 60.5 L 110.5 61.5 L 107.5 61.5 L 107.5 60.5 Z M 113.5 60.5 L 116.5 60.5 L 116.5 61.5 L 113.5 61.5 L 113.5 60.5 Z M 119.5 60.5 L 122.5 60.5 L 122.5 61.5 L 119.5 61.5 L 119.5 60.5 Z M 125.5 60.5 L 128.5 60.5 L 128.5 61.5 L 125.5 61.5 L 125.5 60.5 Z M 131.5 60.5 L 134.5 60.5 L 134.5 61.5 L 131.5 61.5 L 131.5 60.5 Z M 137.5 60.5 L 140.5 60.5 L 140.5 61.5 L 137.5 61.5 L 137.5 60.5 Z M 143.5 60.5 L 146.5 60.5 L 146.5 61.5 L 143.5 61.5 L 143.5 60.5 Z M 149.5 60.5 L 152.5 60.5 L 152.5 61.5 L 149.5 61.5 L 149.5 60.5 Z M 155.5 60.5 L 158.5 60.5 L 158.5 61.5 L 155.5 61.5 L 155.5 60.5 Z M 161.5 60.5 L 164.5 60.5 L 164.5 61.5 L 161.5 61.5 L 161.5 60.5 Z M 167.5 60.5 L 170.5 60.5 L 170.5 61.5 L 167.5 61.5 L 167.5 60.5 Z M 173.5 60.5 L 176.5 60.5 L 176.5 61.5 L 173.5 61.5 L 173.5 60.5 Z M 179.5 60.5 L 182.5 60.5 L 182.5 61.5 L 179.5 61.5 L 179.5 60.5 Z M 185.5 60.5 L 188.5 60.5 L 188.5 61.5 L 185.5 61.5 L 185.5 60.5 Z M 191.5 60.5 L 194.5 60.5 L 194.5 61.5 L 191.5 61.5 L 191.5 60.5 Z M 197.5 60.5 L 200.49999 60.5 L 200.49999 61.5 L 197.5 61.5 L 197.5 60.5 Z M 203.5 60.5 L 206.50002 60.5 L 206.50002 61.5 L 203.5 61.5 L 203.5 60.5 Z M 209.5 60.5 L 212.5 60.5 L 212.5 61.5 L 209.5 61.5 L 209.5 60.5 Z M 215.5 60.5 L 218.5 60.5 L 218.5 61.5 L 215.5 61.5 L 215.5 60.5 Z M 221.5 60.5 L 224.5 60.5 L 224.5 61.5 L 221.5 61.5 L 221.5 60.5 Z M 227.5 60.5 L 230.5 60.5 L 230.5 61.5 L 227.5 61.5 L 227.5 60.5 Z M 233.5 60.5 L 236.5 60.5 L 236.5 61.5 L 233.5 61.5 L 233.5 60.5 Z M 239.5 60.5 L 242.5 60.5 L 242.5 61.5 L 239.5 61.5 L 239.5 60.5 Z M 245.5 60.5 L 248.5 60.5 L 248.5 61.5 L 245.5 61.5 L 245.5 60.5 Z M 251.5 60.5 L 254.5 60.5 L 254.5 61.5 L 251.5 61.5 L 251.5 60.5 Z M 257.5 60.5 L 260.5 60.5 L 260.5 61.5 L 257.5 61.5 L 257.5 60.5 Z M 263.5 60.5 L 266.5 60.5 L 266.5 61.5 L 263.5 61.5 L 263.5 60.5 Z M 269.5 60.5 L 272.5 60.5 L 272.5 61.5 L 269.5 61.5 L 269.5 60.5 Z M 275.5 60.5 L 278.5 60.5 L 278.5 61.5 L 275.5 61.5 L 275.5 60.5 Z M 281.5 60.5 L 284.5 60.5 L 284.5 61.5 L 281.5 61.5 L 281.5 60.5 Z M 287.5 60.5 L 290.5 60.5 L 290.5 61.5 L 287.5 61.5 L 287.5 60.5 Z M 293.5 60.5 L 296.5 60.5 L 296.5 61.5 L 293.5 61.5 L 293.5 60.5 Z M 299.5 60.5 L 302.5 60.5 L 302.5 61.5 L 299.5 61.5 L 299.5 60.5 Z M 305.5 60.5 L 308.5 60.5 L 308.5 61.5 L 305.5 61.5 L 305.5 60.5 Z M 311.5 60.5 L 314.5 60.5 L 314.5 61.5 L 311.5 61.5 L 311.5 60.5 Z M 317.5 60.5 L 320.5 60.5 L 320.5 61.5 L 317.5 61.5 L 317.5 60.5 Z M 323.5 60.5 L 326.5 60.5 L 326.5 61.5 L 323.5 61.5 L 323.5 60.5 Z M 329.5 60.5 L 332.49998 60.5 L 332.49998 61.5 L 329.5 61.5 L 329.5 60.5 Z M 335.5 60.5 L 338.5 60.5 L 338.5 61.5 L 335.5 61.5 L 335.5 60.5 Z M 341.5 60.5 L 344.50004 60.5 L 344.50004 61.5 L 341.5 61.5 L 341.5 60.5 Z M 347.5 60.5 L 350.5 60.5 L 350.5 61.5 L 347.5 61.5 L 347.5 60.5 Z M 353.5 60.5 L 356.5 60.5 L 356.5 61.5 L 353.5 61.5 L 353.5 60.5 Z M 359.5 60.5 L 362.5 60.5 L 362.5 61.5 L 359.5 61.5 L 359.5 60.5 Z M 365.5 60.5 L 368.5 60.5 L 368.5 61.5 L 365.5 61.5 L 365.5 60.5 Z M 371.5 60.5 L 374.5 60.5 L 374.5 61.5 L 371.5 61.5 L 371.5 60.5 Z M 377.5 60.5 L 380.5 60.5 L 380.5 61.5 L 377.5 61.5 L 377.5 60.5 Z M 383.5 60.5 L 386.5 60.5 L 386.5 61.5 L 383.5 61.5 L 383.5 60.5 Z M 389.5 60.5 L 392.5 60.5 L 392.5 61.5 L 389.5 61.5 L 389.5 60.5 Z M 395.5 60.5 L 398.5 60.5 L 398.5 61.5 L 395.5 61.5 L 395.5 60.5 Z M 401.5 60.5 L 404.5 60.5 L 404.5 61.5 L 401.5 61.5 L 401.5 60.5 Z M 407.5 60.5 L 410.5 60.5 L 410.5 61.5 L 407.5 61.5 L 407.5 60.5 Z M 413.5 60.5 L 416.5 60.5 L 416.5 61.5 L 413.5 61.5 L 413.5 60.5 Z M 419.5 60.5 L 422.5 60.5 L 422.5 61.5 L 419.5 61.5 L 419.5 60.5 Z M 425.5 60.5 L 428.5 60.5 L 428.5 61.5 L 425.5 61.5 L 425.5 60.5 Z M 431.5 60.5 L 434.5 60.5 L 434.5 61.5 L 431.5 61.5 L 431.5 60.5 Z M 437.5 60.5 L 440.5 60.5 L 440.5 61.5 L 437.5 61.5 L 437.5 60.5 Z M 443.5 60.5 L 446.5 60.5 L 446.5 61.5 L 443.5 61.5 L 443.5 60.5 Z M 449.5 60.5 L 452.5 60.5 L 452.5 61.5 L 449.5 61.5 L 449.5 60.5 Z M 455.5 60.5 L 458.5 60.5 L 458.5 61.5 L 455.5 61.5 L 455.5 60.5 Z M 461.5 60.5 L 464.5 60.5 L 464.5 61.5 L 461.5 61.5 L 461.5 60.5 Z M 467.49998 60.5 L 470.5 60.5 L 470.5 61.5 L 467.49998 61.5 L 467.49998 60.5 Z M 473.5 60.5 L 476.5 60.5 L 476.5 61.5 L 473.5 61.5 L 473.5 60.5 Z M 479.50004 60.5 L 482.5 60.5 L 482.5 61.5 L 479.50004 61.5 L 479.50004 60.5 Z M 485.5 60.5 L 488.5 60.5 L 488.5 61.5 L 485.5 61.5 L 485.5 60.5 Z M 491.5 60.5 L 494.5 60.5 L 494.5 61.5 L 491.5 61.5 L 491.5 60.5 Z M 497.5 60.5 L 500.5 60.5 L 500.5 61.5 L 497.5 61.5 L 497.5 60.5 Z M 503.5 60.5 L 506.5 60.5 L 506.5 61.5 L 503.5 61.5 L 503.5 60.5 Z M 509.5 60.5 L 512.5 60.5 L 512.5 61.5 L 509.5 61.5 L 509.5 60.5 Z M 515.5 60.5 L 518.5 60.5 L 518.5 61.5 L 515.5 61.5 L 515.5 60.5 Z M 521.5 60.5 L 524.5 60.5 L 524.5 61.5 L 521.5 61.5 L 521.5 60.5 Z M 527.5 60.5 L 530.5 60.5 L 530.5 61.5 L 527.5 61.5 L 527.5 60.5 Z M 533.5 60.5 L 536.5 60.5 L 536.5 61.5 L 533.5 61.5 L 533.5 60.5 Z M 539.5 60.5 L 542.5 60.5 L 542.5 61.5 L 539.5 61.5 L 539.5 60.5 Z M 545.5 60.5 L 548.5 60.5 L 548.5 61.5 L 545.5 61.5 L 545.5 60.5 Z M 551.5 60.5 L 554.5 60.5 L 554.5 61.5 L 551.5 61.5 L 551.5 60.5 Z M 557.5 60.5 L 560.5 60.5 L 560.5 61.5 L 557.5 61.5 L 557.5 60.5 Z M 563.5 60.5 L 566.5 60.5 L 566.5 61.5 L 563.5 61.5 L 563.5 60.5 Z M 569.5 60.5 L 572.5 60.5 L 572.5 61.5 L 569.5 61.5 L 569.5 60.5 Z M 575.5 60.5 L 578.5 60.5 L 578.5 61.5 L 575.5 61.5 L 575.5 60.5 Z M 581.5 60.5 L 584.5 60.5 L 584.5 61.5 L 581.5 61.5 L 581.5 60.5 Z M 587.5 60.5 L 590.5 60.5 L 590.5 61.5 L 587.5 61.5 L 587.5 60.5 Z M 593.5 60.5 L 596.49996 60.5 L 596.49996 61.5 L 593.5 61.5 L 593.5 60.5 Z M 599.5 60.5 L 602.5 60.5 L 602.5 61.5 L 599.5 61.5 L 599.5 60.5 Z M 605.5 60.5 L 608.5 60.5 L 608.5 61.5 L 605.5 61.5 L 605.5 60.5 Z M 611.5 60.5 L 614.5 60.5 L 614.5 61.5 L 611.5 61.5 L 611.5 60.5 Z M 617.5 60.5 L 620.50009 60.5 L 620.50009 61.5 L 617.5 61.5 L 617.5 60.5 Z M 623.5 60.5 L 626.5 60.5 L 626.5 61.5 L 623.5 61.5 L 623.5 60.5 Z M 629.5 60.5 L 632.5 60.5 L 632.5 61.5 L 629.5 61.5 L 629.5 60.5 Z M 635.5 60.5 L 638.5 60.5 L 638.5 61.5 L 635.5 61.5 L 635.5 60.5 Z M 641.5 60.5 L 644.5 60.5 L 644.5 61.5 L 641.5 61.5 L 641.5 60.5 Z M 647.5 60.5 L 650.5 60.5 L 650.5 61.5 L 647.5 61.5 L 647.5 60.5 Z M 653.5 60.5 L 656.5 60.5 L 656.5 61.5 L 653.5 61.5 L 653.5 60.5 Z M 659.5 60.5 L 662.5 60.5 L 662.5 61.5 L 659.5 61.5 L 659.5 60.5 Z M 665.5 60.5 L 668.5 60.5 L 668.5 61.5 L 665.5 61.5 L 665.5 60.5 Z M 671.5 60.5 L 674.5 60.5 L 674.5 61.5 L 671.5 61.5 L 671.5 60.5 Z M 677.5 60.5 L 680.5 60.5 L 680.5 61.5 L 677.5 61.5 L 677.5 60.5 Z M 683.5 60.5 L 686.5 60.5 L 686.5 61.5 L 683.5 61.5 L 683.5 60.5 Z M 689.5 60.5 L 692.5 60.5 L 692.5 61.5 L 689.5 61.5 L 689.5 60.5 Z M 695.5 60.5 L 698.5 60.5 L 698.5 61.5 L 695.5 61.5 L 695.5 60.5 Z M 701.5 60.5 L 704.5 60.5 L 704.5 61.5 L 701.5 61.5 L 701.5 60.5 Z M 707.5 60.5 L 710.5 60.5 L 710.5 61.5 L 707.5 61.5 L 707.5 60.5 Z M 713.5 60.5 L 716.5 60.5 L 716.5 61.5 L 713.5 61.5 L 713.5 60.5 Z M 719.5 60.5 L 722.5 60.5 L 722.5 61.5 L 719.5 61.5 L 719.5 60.5 Z M 725.5 60.5 L 728.5 60.5 L 728.5 61.5 L 725.5 61.5 L 725.5 60.5 Z M 731.49996 60.5 L 734.5 60.5 L 734.5 61.5 L 731.49996 61.5 L 731.49996 60.5 Z M 737.5 60.5 L 740.5 60.5 L 740.5 61.5 L 737.5 61.5 L 737.5 60.5 Z M 743.5 60.5 L 746.5 60.5 L 746.5 61.5 L 743.5 61.5 L 743.5 60.5 Z M 749.5 60.5 L 752.5 60.5 L 752.5 61.5 L 749.5 61.5 L 749.5 60.5 Z M 755.50009 60.5 L 758.5 60.5 L 758.5 61.5 L 755.50009 61.5 L 755.50009 60.5 Z M 761.5 60.5 L 764.5 60.5 L 764.5 61.5 L 761.5 61.5 L 761.5 60.5 Z M 767.5 60.5 L 770.5 60.5 L 770.5 61.5 L 767.5 61.5 L 767.5 60.5 Z M 773.5 60.5 L 776.5 60.5 L 776.5 61.5 L 773.5 61.5 L 773.5 60.5 Z M 779.5 60.5 L 782.5 60.5 L 782.5 61.5 L 779.5 61.5 L 779.5 60.5 Z M 785.5 60.5 L 788.5 60.5 L 788.5 61.5 L 785.5 61.5 L 785.5 60.5 Z M 791.5 60.5 L 794.5 60.5 L 794.5 61.5 L 791.5 61.5 L 791.5 60.5 Z M 797.5 60.5 L 800.5 60.5 L 800.5 61.5 L 797.5 61.5 L 797.5 60.5 Z M 803.5 60.5 L 806.5 60.5 L 806.5 61.5 L 803.5 61.5 L 803.5 60.5 Z M 809.5 60.5 L 812.5 60.5 L 812.5 61.5 L 809.5 61.5 L 809.5 60.5 Z M 815.5 60.5 L 818.5 60.5 L 818.5 61.5 L 815.5 61.5 L 815.5 60.5 Z M 821.5 60.5 L 824.5 60.5 L 824.5 61.5 L 821.5 61.5 L 821.5 60.5 Z M 827.5 60.5 L 830.5 60.5 L 830.5 61.5 L 827.5 61.5 L 827.5 60.5 Z M 833.5 60.5 L 836.5 60.5 L 836.5 61.5 L 833.5 61.5 L 833.5 60.5 Z M 839.5 60.5 L 842.5 60.5 L 842.5 61.5 L 839.5 61.5 L 839.5 60.5 Z M 845.5 60.5 L 848.5 60.5 L 848.5 61.5 L 845.5 61.5 L 845.5 60.5 Z M 851.5 60.5 L 854.5 60.5 L 854.5 61.5 L 851.5 61.5 L 851.5 60.5 Z M 857.5 60.5 L 860.5 60.5 L 860.5 61.5 L 857.5 61.5 L 857.5 60.5 Z M 863.5 60.5 L 866.49996 60.5 L 866.49996 61.5 L 863.5 61.5 L 863.5 60.5 Z M 869.5 60.5 L 872.5 60.5 L 872.5 61.5 L 869.5 61.5 L 869.5 60.5 Z M 875.5 60.5 L 878.5 60.5 L 878.5 61.5 L 875.5 61.5 L 875.5 60.5 Z M 881.5 60.5 L 884.5 60.5 L 884.5 61.5 L 881.5 61.5 L 881.5 60.5 Z M 887.5 60.5 L 890.50009 60.5 L 890.50009 61.5 L 887.5 61.5 L 887.5 60.5 Z M 893.5 60.5 L 896.5 60.5 L 896.5 61.5 L 893.5 61.5 L 893.5 60.5 Z M 899.5 60.5 L 902.5 60.5 L 902.5 61.5 L 899.5 61.5 L 899.5 60.5 Z M 905.5 60.5 L 908.5 60.5 L 908.5 61.5 L 905.5 61.5 L 905.5 60.5 Z M 911.5 60.5 L 914.5 60.5 L 914.5 61.5 L 911.5 61.5 L 911.5 60.5 Z M 917.5 60.5 L 920.5 60.5 L 920.5 61.5 L 917.5 61.5 L 917.5 60.5 Z M 923.5 60.5 L 926.5 60.5 L 926.5 61.5 L 923.5 61.5 L 923.5 60.5 Z M 929.5 60.5 L 932.5 60.5 L 932.5 61.5 L 929.5 61.5 L 929.5 60.5 Z M 935.5 60.5 L 938.5 60.5 L 938.5 61.5 L 935.5 61.5 L 935.5 60.5 Z M 941.5 60.5 L 944.5 60.5 L 944.5 61.5 L 941.5 61.5 L 941.5 60.5 Z M 947.5 60.5 L 950.5 60.5 L 950.5 61.5 L 947.5 61.5 L 947.5 60.5 Z M 953.5 60.5 L 956.5 60.5 L 956.5 61.5 L 953.5 61.5 L 953.5 60.5 Z M 959.5 60.5 L 962.5 60.5 L 962.5 61.5 L 959.5 61.5 L 959.5 60.5 Z M 965.5 60.5 L 968.5 60.5 L 968.5 61.5 L 965.5 61.5 L 965.5 60.5 Z M 971.5 60.5 L 974.5 60.5 L 974.5 61.5 L 971.5 61.5 L 971.5 60.5 Z M 977.5 60.5 L 980.5 60.5 L 980.5 61.5 L 977.5 61.5 L 977.5 60.5 Z M 983.5 60.5 L 986.5 60.5 L 986.5 61.5 L 983.5 61.5 L 983.5 60.5 Z M 989.5 60.5 L 992.5 60.5 L 992.5 61.5 L 989.5 61.5 L 989.5 60.5 Z M 995.5 60.5 L 998.5 60.5 L 998.5 61.5 L 995.5 61.5 L 995.5 60.5 Z M 1001.49996 60.5 L 1004.5 60.5 L 1004.5 61.5 L 1001.49996 61.5 L 1001.49996 60.5 Z M 1007.5 60.5 L 1010.5 60.5 L 1010.5 61.5 L 1007.5 61.5 L 1007.5 60.5 Z M 1013.5 60.5 L 1016.5 60.5 L 1016.5 61.5 L 1013.5 61.5 L 1013.5 60.5 Z M 1019.5 60.5 L 1022.5 60.5 L 1022.5 61.5 L 1019.5 61.5 L 1019.5 60.5 Z M 1025.5 60.5 L 1028.5 60.5 L 1028.5 61.5 L 1025.5 61.5 L 1025.5 60.5 Z M 1031.5 60.5 L 1034.5 60.5 L 1034.5 61.5 L 1031.5 61.5 L 1031.5 60.5 Z M 1037.5 60.5 L 1040.5 60.5 L 1040.5 61.5 L 1037.5 61.5 L 1037.5 60.5 Z M 1043.5 60.5 L 1046.5 60.5 L 1046.5 61.5 L 1043.5 61.5 L 1043.5 60.5 Z M 1049.5 60.5 L 1052.5 60.5 L 1052.5 61.5 L 1049.5 61.5 L 1049.5 60.5 Z M 1055.5 60.5 L 1058.5 60.5 L 1058.5 61.5 L 1055.5 61.5 L 1055.5 60.5 Z M 1061.5 60.5 L 1064.5 60.5 L 1064.5 61.5 L 1061.5 61.5 L 1061.5 60.5 Z M 1067.5 60.5 L 1070.5 60.5 L 1070.5 61.5 L 1067.5 61.5 L 1067.5 60.5 Z M 1073.5 60.5 L 1076.5 60.5 L 1076.5 61.5 L 1073.5 61.5 L 1073.5 60.5 Z M 1079.5 60.5 L 1081.5 60.5 L 1081.5 62.5 L 1080.5 62.5 L 1080.5 61 L 1081 61 L 1081 61.5 L 1079.5 61.5 L 1079.5 60.5 Z M 1081.5 65.5 L 1081.5 68.5 L 1080.5 68.5 L 1080.5 65.5 L 1081.5 65.5 Z M 1081.5 71.5 L 1081.5 74.5 L 1080.5 74.5 L 1080.5 71.5 L 1081.5 71.5 Z M 1081.5 77.5 L 1081.5 80.5 L 1080.5 80.5 L 1080.5 77.5 L 1081.5 77.5 Z M 1081.5 83.5 L 1081.5 86.5 L 1080.5 86.5 L 1080.5 83.5 L 1081.5 83.5 Z M 1081.5 89.5 L 1081.5 92.5 L 1080.5 92.5 L 1080.5 89.5 L 1081.5 89.5 Z M 1081.5 95.5 L 1081.5 98.5 L 1080.5 98.5 L 1080.5 95.5 L 1081.5 95.5 Z M 1081.5 101.5 L 1081.5 104.5 L 1080.5 104.5 L 1080.5 101.5 L 1081.5 101.5 Z M 1081.5 107.5 L 1081.5 110.5 L 1080.5 110.5 L 1080.5 107.5 L 1081.5 107.5 Z M 1081.5 113.5 L 1081.5 116.5 L 1080.5 116.5 L 1080.5 113.5 L 1081.5 113.5 Z M 1081.5 119.5 L 1081.5 122.5 L 1080.5 122.5 L 1080.5 119.5 L 1081.5 119.5 Z M 1081.5 125.5 L 1081.5 128.5 L 1080.5 128.5 L 1080.5 125.5 L 1081.5 125.5 Z M 1081.5 131.5 L 1081.5 134.5 L 1080.5 134.5 L 1080.5 131.5 L 1081.5 131.5 Z M 1081.5 137.5 L 1081.5 140.5 L 1080.5 140.5 L 1080.5 137.5 L 1081.5 137.5 Z M 1081.5 143.5 L 1081.5 146.5 L 1080.5 146.5 L 1080.5 143.5 L 1081.5 143.5 Z M 1081.5 149.5 L 1081.5 152.5 L 1080.5 152.5 L 1080.5 149.5 L 1081.5 149.5 Z M 1081.5 155.5 L 1081.5 158.5 L 1080.5 158.5 L 1080.5 155.5 L 1081.5 155.5 Z M 1081.5 161.5 L 1081.5 164.5 L 1080.5 164.5 L 1080.5 161.5 L 1081.5 161.5 Z M 1081.5 167.5 L 1081.5 170.5 L 1080.5 170.5 L 1080.5 167.5 L 1081.5 167.5 Z M 1081.5 173.5 L 1081.5 176.5 L 1080.5 176.5 L 1080.5 173.5 L 1081.5 173.5 Z M 1081.5 179.5 L 1081.5 182.5 L 1080.5 182.5 L 1080.5 179.5 L 1081.5 179.5 Z M 1081.5 185.5 L 1081.5 188.5 L 1080.5 188.5 L 1080.5 185.5 L 1081.5 185.5 Z M 1081.5 191.5 L 1081.5 194.5 L 1080.5 194.5 L 1080.5 191.5 L 1081.5 191.5 Z M 1081.5 197.5 L 1081.5 200.5 L 1080.5 200.5 L 1080.5 197.5 L 1081.5 197.5 Z M 1081.5 203.5 L 1081.5 206.5 L 1080.5 206.5 L 1080.5 203.5 L 1081.5 203.5 Z M 1081.5 209.5 L 1081.5 212.5 L 1080.5 212.5 L 1080.5 209.5 L 1081.5 209.5 Z M 1081.5 215.5 L 1081.5 218.5 L 1080.5 218.5 L 1080.5 215.5 L 1081.5 215.5 Z M 1081.5 221.5 L 1081.5 224.5 L 1080.5 224.5 L 1080.5 221.5 L 1081.5 221.5 Z M 1081.5 227.5 L 1081.5 230.5 L 1080.5 230.5 L 1080.5 227.5 L 1081.5 227.5 Z M 1081.5 233.5 L 1081.5 236.5 L 1080.5 236.5 L 1080.5 233.5 L 1081.5 233.5 Z M 1081.5 239.5 L 1081.5 242.5 L 1080.5 242.5 L 1080.5 239.5 L 1081.5 239.5 Z M 1081.5 245.5 L 1081.5 248.5 L 1080.5 248.5 L 1080.5 245.5 L 1081.5 245.5 Z M 1081.5 251.5 L 1081.5 254.5 L 1080.5 254.5 L 1080.5 251.5 L 1081.5 251.5 Z M 1081.5 257.5 L 1081.5 260.5 L 1080.5 260.5 L 1080.5 257.5 L 1081.5 257.5 Z M 1081.5 263.5 L 1081.5 266.5 L 1080.5 266.5 L 1080.5 263.5 L 1081.5 263.5 Z M 1081.5 269.5 L 1081.5 272.5 L 1080.5 272.5 L 1080.5 269.5 L 1081.5 269.5 Z M 1081.5 275.5 L 1081.5 278.5 L 1080.5 278.5 L 1080.5 275.5 L 1081.5 275.5 Z M 1081.5 281.5 L 1081.5 284.5 L 1080.5 284.5 L 1080.5 281.5 L 1081.5 281.5 Z M 1081.5 287.5 L 1081.5 290.5 L 1080.5 290.5 L 1080.5 287.5 L 1081.5 287.5 Z M 1081.5 293.5 L 1081.5 296.5 L 1080.5 296.5 L 1080.5 293.5 L 1081.5 293.5 Z M 1081.5 299.5 L 1081.5 302.5 L 1080.5 302.5 L 1080.5 299.5 L 1081.5 299.5 Z M 1081.5 305.5 L 1081.5 308.5 L 1080.5 308.5 L 1080.5 305.5 L 1081.5 305.5 Z M 1081.5 311.5 L 1081.5 314.5 L 1080.5 314.5 L 1080.5 311.5 L 1081.5 311.5 Z M 1081.5 317.5 L 1081.5 320.5 L 1080.5 320.5 L 1080.5 317.5 L 1081.5 317.5 Z M 1081.5 323.5 L 1081.5 326.5 L 1080.5 326.5 L 1080.5 323.5 L 1081.5 323.5 Z M 1081.5 329.5 L 1081.5 332.5 L 1080.5 332.5 L 1080.5 329.5 L 1081.5 329.5 Z M 1081.5 335.5 L 1081.5 338.5 L 1080.5 338.5 L 1080.5 335.5 L 1081.5 335.5 Z M 1081.5 341.5 L 1081.5 344.5 L 1080.5 344.5 L 1080.5 341.5 L 1081.5 341.5 Z M 1081.5 347.5 L 1081.5 350.5 L 1080.5 350.5 L 1080.5 347.5 L 1081.5 347.5 Z M 1079.5 352.5 L 1076.5 352.5 L 1076.5 351.5 L 1079.5 351.5 L 1079.5 352.5 Z M 1073.5 352.5 L 1070.5 352.5 L 1070.5 351.5 L 1073.5 351.5 L 1073.5 352.5 Z M 1067.5 352.5 L 1064.5 352.5 L 1064.5 351.5 L 1067.5 351.5 L 1067.5 352.5 Z M 1061.5 352.5 L 1058.5 352.5 L 1058.5 351.5 L 1061.5 351.5 L 1061.5 352.5 Z M 1055.5 352.5 L 1052.5 352.5 L 1052.5 351.5 L 1055.5 351.5 L 1055.5 352.5 Z M 1049.5 352.5 L 1046.5 352.5 L 1046.5 351.5 L 1049.5 351.5 L 1049.5 352.5 Z M 1043.5 352.5 L 1040.5 352.5 L 1040.5 351.5 L 1043.5 351.5 L 1043.5 352.5 Z M 1037.5 352.5 L 1034.5 352.5 L 1034.5 351.5 L 1037.5 351.5 L 1037.5 352.5 Z M 1031.5 352.5 L 1028.5 352.5 L 1028.5 351.5 L 1031.5 351.5 L 1031.5 352.5 Z M 1025.5 352.5 L 1022.5 352.5 L 1022.5 351.5 L 1025.5 351.5 L 1025.5 352.5 Z M 1019.5 352.5 L 1016.5 352.5 L 1016.5 351.5 L 1019.5 351.5 L 1019.5 352.5 Z M 1013.5 352.5 L 1010.5 352.5 L 1010.5 351.5 L 1013.5 351.5 L 1013.5 352.5 Z M 1007.5 352.5 L 1004.5 352.5 L 1004.5 351.5 L 1007.5 351.5 L 1007.5 352.5 Z M 1001.5 352.5 L 998.5 352.5 L 998.5 351.5 L 1001.5 351.5 L 1001.5 352.5 Z M 995.5 352.5 L 992.5 352.5 L 992.5 351.5 L 995.5 351.5 L 995.5 352.5 Z M 989.5 352.5 L 986.5 352.5 L 986.5 351.5 L 989.5 351.5 L 989.5 352.5 Z M 983.5 352.5 L 980.5 352.5 L 980.5 351.5 L 983.5 351.5 L 983.5 352.5 Z M 977.5 352.5 L 974.5 352.5 L 974.5 351.5 L 977.5 351.5 L 977.5 352.5 Z M 971.5 352.5 L 968.5 352.5 L 968.5 351.5 L 971.5 351.5 L 971.5 352.5 Z M 965.5 352.5 L 962.5 352.5 L 962.5 351.5 L 965.5 351.5 L 965.5 352.5 Z M 959.5 352.5 L 956.5 352.5 L 956.5 351.5 L 959.5 351.5 L 959.5 352.5 Z M 953.5 352.5 L 950.5 352.5 L 950.5 351.5 L 953.5 351.5 L 953.5 352.5 Z M 947.5 352.5 L 944.5 352.5 L 944.5 351.5 L 947.5 351.5 L 947.5 352.5 Z M 941.5 352.5 L 938.5 352.5 L 938.5 351.5 L 941.5 351.5 L 941.5 352.5 Z M 935.5 352.5 L 932.5 352.5 L 932.5 351.5 L 935.5 351.5 L 935.5 352.5 Z M 929.5 352.5 L 926.5 352.5 L 926.5 351.5 L 929.5 351.5 L 929.5 352.5 Z M 923.5 352.5 L 920.5 352.5 L 920.5 351.5 L 923.5 351.5 L 923.5 352.5 Z M 917.5 352.5 L 914.5 352.5 L 914.5 351.5 L 917.5 351.5 L 917.5 352.5 Z M 911.5 352.5 L 908.5 352.5 L 908.5 351.5 L 911.5 351.5 L 911.5 352.5 Z M 905.5 352.5 L 902.5 352.5 L 902.5 351.5 L 905.5 351.5 L 905.5 352.5 Z M 899.5 352.5 L 896.5 352.5 L 896.5 351.5 L 899.5 351.5 L 899.5 352.5 Z M 893.5 352.5 L 890.5 352.5 L 890.5 351.5 L 893.5 351.5 L 893.5 352.5 Z M 887.5 352.5 L 884.5 352.5 L 884.5 351.5 L 887.5 351.5 L 887.5 352.5 Z M 881.5 352.5 L 878.5 352.5 L 878.5 351.5 L 881.5 351.5 L 881.5 352.5 Z M 875.5 352.5 L 872.5 352.5 L 872.5 351.5 L 875.5 351.5 L 875.5 352.5 Z M 869.5 352.5 L 866.5 352.5 L 866.5 351.5 L 869.5 351.5 L 869.5 352.5 Z M 863.5 352.5 L 860.5 352.5 L 860.5 351.5 L 863.5 351.5 L 863.5 352.5 Z M 857.5 352.5 L 854.5 352.5 L 854.5 351.5 L 857.5 351.5 L 857.5 352.5 Z M 851.5 352.5 L 848.5 352.5 L 848.5 351.5 L 851.5 351.5 L 851.5 352.5 Z M 845.5 352.5 L 842.5 352.5 L 842.5 351.5 L 845.5 351.5 L 845.5 352.5 Z M 839.5 352.5 L 836.5 352.5 L 836.5 351.5 L 839.5 351.5 L 839.5 352.5 Z M 833.5 352.5 L 830.5 352.5 L 830.5 351.5 L 833.5 351.5 L 833.5 352.5 Z M 827.5 352.5 L 824.5 352.5 L 824.5 351.5 L 827.5 351.5 L 827.5 352.5 Z M 821.5 352.5 L 818.5 352.5 L 818.5 351.5 L 821.5 351.5 L 821.5 352.5 Z M 815.5 352.5 L 812.5 352.5 L 812.5 351.5 L 815.5 351.5 L 815.5 352.5 Z M 809.5 352.5 L 806.5 352.5 L 806.5 351.5 L 809.5 351.5 L 809.5 352.5 Z M 803.5 352.5 L 800.5 352.5 L 800.5 351.5 L 803.5 351.5 L 803.5 352.5 Z M 797.5 352.5 L 794.5 352.5 L 794.5 351.5 L 797.5 351.5 L 797.5 352.5 Z M 791.5 352.5 L 788.5 352.5 L 788.5 351.5 L 791.5 351.5 L 791.5 352.5 Z M 785.5 352.5 L 782.5 352.5 L 782.5 351.5 L 785.5 351.5 L 785.5 352.5 Z M 779.5 352.5 L 776.5 352.5 L 776.5 351.5 L 779.5 351.5 L 779.5 352.5 Z M 773.5 352.5 L 770.5 352.5 L 770.5 351.5 L 773.5 351.5 L 773.5 352.5 Z M 767.5 352.5 L 764.5 352.5 L 764.5 351.5 L 767.5 351.5 L 767.5 352.5 Z M 761.5 352.5 L 758.5 352.5 L 758.5 351.5 L 761.5 351.5 L 761.5 352.5 Z M 755.5 352.5 L 752.5 352.5 L 752.5 351.5 L 755.5 351.5 L 755.5 352.5 Z M 749.5 352.5 L 746.5 352.5 L 746.5 351.5 L 749.5 351.5 L 749.5 352.5 Z M 743.5 352.5 L 740.5 352.5 L 740.5 351.5 L 743.5 351.5 L 743.5 352.5 Z M 737.5 352.5 L 734.5 352.5 L 734.5 351.5 L 737.5 351.5 L 737.5 352.5 Z M 731.5 352.5 L 728.5 352.5 L 728.5 351.5 L 731.5 351.5 L 731.5 352.5 Z M 725.5 352.5 L 722.5 352.5 L 722.5 351.5 L 725.5 351.5 L 725.5 352.5 Z M 719.5 352.5 L 716.5 352.5 L 716.5 351.5 L 719.5 351.5 L 719.5 352.5 Z M 713.5 352.5 L 710.5 352.5 L 710.5 351.5 L 713.5 351.5 L 713.5 352.5 Z M 707.5 352.5 L 704.5 352.5 L 704.5 351.5 L 707.5 351.5 L 707.5 352.5 Z M 701.5 352.5 L 698.5 352.5 L 698.5 351.5 L 701.5 351.5 L 701.5 352.5 Z M 695.5 352.5 L 692.5 352.5 L 692.5 351.5 L 695.5 351.5 L 695.5 352.5 Z M 689.5 352.5 L 686.5 352.5 L 686.5 351.5 L 689.5 351.5 L 689.5 352.5 Z M 683.5 352.5 L 680.5 352.5 L 680.5 351.5 L 683.5 351.5 L 683.5 352.5 Z M 677.5 352.5 L 674.5 352.5 L 674.5 351.5 L 677.5 351.5 L 677.5 352.5 Z M 671.5 352.5 L 668.5 352.5 L 668.5 351.5 L 671.5 351.5 L 671.5 352.5 Z M 665.5 352.5 L 662.5 352.5 L 662.5 351.5 L 665.5 351.5 L 665.5 352.5 Z M 659.5 352.5 L 656.5 352.5 L 656.5 351.5 L 659.5 351.5 L 659.5 352.5 Z M 653.5 352.5 L 650.5 352.5 L 650.5 351.5 L 653.5 351.5 L 653.5 352.5 Z M 647.5 352.5 L 644.5 352.5 L 644.5 351.5 L 647.5 351.5 L 647.5 352.5 Z M 641.5 352.5 L 638.5 352.5 L 638.5 351.5 L 641.5 351.5 L 641.5 352.5 Z M 635.5 352.5 L 632.5 352.5 L 632.5 351.5 L 635.5 351.5 L 635.5 352.5 Z M 629.5 352.5 L 626.5 352.5 L 626.5 351.5 L 629.5 351.5 L 629.5 352.5 Z M 623.5 352.5 L 620.5 352.5 L 620.5 351.5 L 623.5 351.5 L 623.5 352.5 Z M 617.5 352.5 L 614.5 352.5 L 614.5 351.5 L 617.5 351.5 L 617.5 352.5 Z M 611.5 352.5 L 608.5 352.5 L 608.5 351.5 L 611.5 351.5 L 611.5 352.5 Z M 605.5 352.5 L 602.5 352.5 L 602.5 351.5 L 605.5 351.5 L 605.5 352.5 Z M 599.5 352.5 L 596.5 352.5 L 596.5 351.5 L 599.5 351.5 L 599.5 352.5 Z M 593.5 352.5 L 590.5 352.5 L 590.5 351.5 L 593.5 351.5 L 593.5 352.5 Z M 587.5 352.5 L 584.5 352.5 L 584.5 351.5 L 587.5 351.5 L 587.5 352.5 Z M 581.5 352.5 L 578.5 352.5 L 578.5 351.5 L 581.5 351.5 L 581.5 352.5 Z M 575.9453 352.9707 L 573.44918 354.63484 L 572.8945 353.8028 L 575.3906 352.13868 L 575.9453 352.9707 Z M 570.953 356.29893 L 568.45687 357.963 L 567.90219 357.13099 L 570.3983 355.4669 L 570.953 356.29893 Z M 565.9607 359.62715 L 563.46456 361.29124 L 562.90988 360.4592 L 565.406 358.7951 L 565.9607 359.62715 Z M 560.9684 362.95533 L 558.4722 364.61946 L 557.91757 363.7874 L 560.4137 362.1233 L 560.9684 362.95533 Z M 555.9761 366.28355 L 553.4799 367.94764 L 552.92526 367.1156 L 555.4214 365.4515 L 555.9761 366.28355 Z M 550.98379 369.61177 L 548.4876 371.27586 L 547.9329 370.44383 L 550.4291 368.77973 L 550.98379 369.61177 Z M 548.78146 368.31913 L 550.12307 365.63587 L 551.01748 366.08308 L 549.67587 368.76634 L 548.78146 368.31913 Z M 551.4647 362.95259 L 552.80636 360.2693 L 553.70077 360.7165 L 552.35916 363.39979 L 551.4647 362.95259 Z M 554.148 357.58604 L 555.4896 354.90275 L 556.38406 355.34996 L 555.0424 358.03324 L 554.148 357.58604 Z M 556.83126 352.21943 L 557.0528 351.77638 L 557.5 352 L 557.5 352.5 L 554.5 352.5 L 554.5 351.5 L 558.3091 351.5 L 557.72567 352.6667 L 556.83126 352.21943 Z "/>
<path transform="matrix(.7192982,0,0,.7192982,.3596491,.3596491)" stroke-width="1" stroke-linecap="butt" stroke-miterlimit="10" stroke-linejoin="miter" fill="none" stroke="#000000" d="M 141 185 L 161 185 L 154 185 L 167.63 185 "/>
<path transform="matrix(.7192982,0,0,.7192982,.3596491,.3596491)" d="M 172.88 185 L 165.88 188.5 L 167.63 185 L 165.88 181.5 L 172.88 185 Z "/>
<path transform="matrix(.7192982,0,0,.7192982,.3596491,.3596491)" stroke-width="1" stroke-linecap="butt" stroke-miterlimit="10" stroke-linejoin="miter" fill="none" stroke="#000000" d="M 172.88 185 L 165.88 188.5 L 167.63 185 L 165.88 181.5 L 172.88 185 Z "/>
<path transform="matrix(.7192982,0,0,.7192982,.3596491,.3596491)" d="M 21 155 L 141 155 L 141 215 L 21 215 Z " fill="#ffffff"/>
<path transform="matrix(.7192982,0,0,.7192982,.3596491,.3596491)" stroke-width="1" stroke-linecap="butt" stroke-miterlimit="4" stroke-linejoin="miter" fill="none" stroke="#000000" d="M 21 155 L 141 155 L 141 215 L 21 215 Z "/>
<text xml:space="preserve" transform="matrix(.7192982 0 0 .7192982 28.05263 123.71928)" font-size="12" font-family="Helvetica"><tspan y="11" x="22.3125 30.316502 33.652505 40.324506 46.996507 53.668508 57.00451">Stage 1</tspan></text>
<text xml:space="preserve" transform="matrix(.7192982 0 0 .7192982 28.05263 123.71928)" font-size="12" font-family="Helvetica"><tspan y="25" x=".859375 9.5233759 16.195378 22.867379 29.53938 32.20338 38.87538 45.547384 48.883386 59.78125 67.78525 76.44925">Reading WARC</tspan></text>
<path transform="matrix(.7192982,0,0,.7192982,.3596491,.3596491)" stroke-width="1" stroke-linecap="butt" stroke-miterlimit="10" stroke-linejoin="miter" fill="none" stroke="#000000" d="M 294 185 L 321.63 185 "/>
<path transform="matrix(.7192982,0,0,.7192982,.3596491,.3596491)" d="M 326.88 185 L 319.88 188.5 L 321.63 185 L 319.88 181.5 L 326.88 185 Z "/>
<path transform="matrix(.7192982,0,0,.7192982,.3596491,.3596491)" stroke-width="1" stroke-linecap="butt" stroke-miterlimit="10" stroke-linejoin="miter" fill="none" stroke="#000000" d="M 326.88 185 L 319.88 188.5 L 321.63 185 L 319.88 181.5 L 326.88 185 Z "/>
<path transform="matrix(.7192982,0,0,.7192982,.3596491,.3596491)" d="M 174 155 L 294 155 L 294 215 L 174 215 Z " fill="#ffffff"/>
<path transform="matrix(.7192982,0,0,.7192982,.3596491,.3596491)" stroke-width="1" stroke-linecap="butt" stroke-miterlimit="4" stroke-linejoin="miter" fill="none" stroke="#000000" d="M 174 155 L 294 155 L 294 215 L 174 215 Z "/>
<text xml:space="preserve" transform="matrix(.7192982 0 0 .7192982 140.26316 123.71928)" font-size="12" font-family="Helvetica"><tspan y="11" x="19.3125 27.316502 30.652503 37.3245 43.996503 50.668504 54.0045">Stage 2</tspan></text>
<text xml:space="preserve" transform="matrix(.7192982 0 0 .7192982 140.26316 123.71928)" font-size="12" font-family="Helvetica"><tspan y="25" x=".640625 6.640625 13.312626 19.312626 22.648627 25.984627 33.98863 39.98863 43.32463 47.32063 53.99263 59.99263 63.32863 65.99263 72.66463">Text Extraction</tspan></text>
<path transform="matrix(.7192982,0,0,.7192982,.3596491,.3596491)" stroke-width="1" stroke-linecap="butt" stroke-miterlimit="10" stroke-linejoin="miter" fill="none" stroke="#000000" d="M 448 185 L 474.63 185 "/>
<path transform="matrix(.7192982,0,0,.7192982,.3596491,.3596491)" d="M 479.88 185 L 472.88 188.5 L 474.63 185 L 472.88 181.5 L 479.88 185 Z "/>
<path transform="matrix(.7192982,0,0,.7192982,.3596491,.3596491)" stroke-width="1" stroke-linecap="butt" stroke-miterlimit="10" stroke-linejoin="miter" fill="none" stroke="#000000" d="M 479.88 185 L 472.88 188.5 L 474.63 185 L 472.88 181.5 L 479.88 185 Z "/>
<path transform="matrix(.7192982,0,0,.7192982,.3596491,.3596491)" d="M 328 155 L 448 155 L 448 215 L 328 215 Z " fill="#ffffff"/>
<path transform="matrix(.7192982,0,0,.7192982,.3596491,.3596491)" stroke-width="1" stroke-linecap="butt" stroke-miterlimit="4" stroke-linejoin="miter" fill="none" stroke="#000000" d="M 328 155 L 448 155 L 448 215 L 328 215 Z "/>
<text xml:space="preserve" transform="matrix(.7192982 0 0 .7192982 244.56139 123.71928)" font-size="12" font-family="Helvetica"><tspan y="11" x="28.3125 36.3165 39.652505 46.324506 52.996507 59.668508 63.00451">Stage 3</tspan></text>
<text xml:space="preserve" transform="matrix(.7192982 0 0 .7192982 244.56139 123.71928)" font-size="12" font-family="Helvetica"><tspan y="25" x=".625 8.629001 15.301002 18.637001 21.301 24.637001 30.637001 33.973 42.637 49.309003 55.309003 61.981004 68.653 75.325 77.989 81.325 83.989 90.660999">Entity Recognition</tspan></text>
<path transform="matrix(.7192982,0,0,.7192982,.3596491,.3596491)" stroke-width="1" stroke-linecap="butt" stroke-miterlimit="10" stroke-linejoin="miter" fill="none" stroke="#000000" d="M 601 185 L 627.63 185 "/>
<path transform="matrix(.7192982,0,0,.7192982,.3596491,.3596491)" d="M 632.88 185 L 625.88 188.5 L 627.63 185 L 625.88 181.5 L 632.88 185 Z "/>
<path transform="matrix(.7192982,0,0,.7192982,.3596491,.3596491)" stroke-width="1" stroke-linecap="butt" stroke-miterlimit="10" stroke-linejoin="miter" fill="none" stroke="#000000" d="M 632.88 185 L 625.88 188.5 L 627.63 185 L 625.88 181.5 L 632.88 185 Z "/>
<path transform="matrix(.7192982,0,0,.7192982,.3596491,.3596491)" stroke-width="1" stroke-linecap="butt" stroke-miterlimit="10" stroke-linejoin="miter" fill="none" stroke="#000000" d="M 511 215 L 511 263.63 "/>
<path transform="matrix(.7192982,0,0,.7192982,.3596491,.3596491)" d="M 511 268.88 L 507.5 261.88 L 511 263.63 L 514.5 261.88 L 511 268.88 Z "/>
<path transform="matrix(.7192982,0,0,.7192982,.3596491,.3596491)" stroke-width="1" stroke-linecap="butt" stroke-miterlimit="10" stroke-linejoin="miter" fill="none" stroke="#000000" d="M 511 268.88 L 507.5 261.88 L 511 263.63 L 514.5 261.88 L 511 268.88 Z "/>
<path transform="matrix(.7192982,0,0,.7192982,.3596491,.3596491)" d="M 481 155 L 601 155 L 601 215 L 481 215 Z " fill="#ffffff"/>
<path transform="matrix(.7192982,0,0,.7192982,.3596491,.3596491)" stroke-width="1" stroke-linecap="butt" stroke-miterlimit="4" stroke-linejoin="miter" fill="none" stroke="#000000" d="M 481 155 L 601 155 L 601 215 L 481 215 Z "/>
<text xml:space="preserve" transform="matrix(.7192982 0 0 .7192982 347.42103 113.64911)" font-size="12" font-family="Helvetica"><tspan y="11" x="37.3125 45.3165 48.652505 55.324506 61.996507 68.6685 72.0045">Stage 4</tspan></text>
<text xml:space="preserve" transform="matrix(.7192982 0 0 .7192982 347.42103 113.64911)" font-size="12" font-family="Helvetica"><tspan y="25" x="22.3125 30.316502 36.988504 40.3245 42.988504 46.3245 52.3245 55.6605 62.3325 64.9965 71.6685 77.6685 80.332508 87.0045">Entity Linking</tspan></text>
<text xml:space="preserve" transform="matrix(.7192982 0 0 .7192982 347.42103 113.64911)" font-size="12" font-family="Helvetica"><tspan y="39" x="30.640625 39.304628 45.976629 52.64863 59.32063 61.98463 68.65663 75.32863 78.66463">Candidate</tspan></text>
<text xml:space="preserve" transform="matrix(.7192982 0 0 .7192982 347.42103 113.64911)" font-size="12" font-family="Helvetica"><tspan y="53" x="28.3125 37.6485 44.3205 50.9925 57.6645 61.6605 68.332508 71.6685 74.332508 81.0045">Generation</tspan></text>
<path transform="matrix(.7192982,0,0,.7192982,.3596491,.3596491)" stroke-width="1" stroke-linecap="butt" stroke-miterlimit="10" stroke-linejoin="miter" fill="none" stroke="#000000" d="M 754 185 L 781.63 185 "/>
<path transform="matrix(.7192982,0,0,.7192982,.3596491,.3596491)" d="M 786.88 185 L 779.88 188.5 L 781.63 185 L 779.88 181.5 L 786.88 185 Z "/>
<path transform="matrix(.7192982,0,0,.7192982,.3596491,.3596491)" stroke-width="1" stroke-linecap="butt" stroke-miterlimit="10" stroke-linejoin="miter" fill="none" stroke="#000000" d="M 786.88 185 L 779.88 188.5 L 781.63 185 L 779.88 181.5 L 786.88 185 Z "/>
<path transform="matrix(.7192982,0,0,.7192982,.3596491,.3596491)" d="M 634 155 L 754 155 L 754 215 L 634 215 Z " fill="#ffffff"/>
<path transform="matrix(.7192982,0,0,.7192982,.3596491,.3596491)" stroke-width="1" stroke-linecap="butt" stroke-miterlimit="4" stroke-linejoin="miter" fill="none" stroke="#000000" d="M 634 155 L 754 155 L 754 215 L 634 215 Z "/>
<text xml:space="preserve" transform="matrix(.7192982 0 0 .7192982 462.50874 118.684207)" font-size="12" font-family="Helvetica"><tspan y="11" x="31.3125 39.3165 42.652505 49.324506 55.996507 62.668508 66.00451">Stage 5</tspan></text>
<text xml:space="preserve" transform="matrix(.7192982 0 0 .7192982 462.50874 118.684207)" font-size="12" font-family="Helvetica"><tspan y="25" x="16.3125 24.316502 30.988503 34.3245 36.988504 40.3245 46.3245 49.6605 56.3325 58.996503 65.6685 71.6685 74.332508 81.0045">Entity Linking</tspan></text>
<text xml:space="preserve" transform="matrix(.7192982 0 0 .7192982 462.50874 118.684207)" font-size="12" font-family="Helvetica"><tspan y="39" x=".953125 9.6171259 16.289128 22.961129 29.63313 32.29713 38.96913 45.641134 48.977136 55.649137 58.985139 67.64914 74.32114 80.99313 86.99313 89.657138 96.32913">Candidate Ranking</tspan></text>
<path transform="matrix(.7192982,0,0,.7192982,.3596491,.3596491)" d="M 941 155 L 1061 155 L 1061 215 L 941 215 Z " fill="#ffffff"/>
<path transform="matrix(.7192982,0,0,.7192982,.3596491,.3596491)" stroke-width="1" stroke-linecap="butt" stroke-miterlimit="4" stroke-linejoin="miter" fill="none" stroke="#000000" d="M 941 155 L 1061 155 L 1061 215 L 941 215 Z "/>
<text xml:space="preserve" transform="matrix(.7192982 0 0 .7192982 695.56137 123.71928)" font-size="12" font-family="Helvetica"><tspan y="11" x="13.3125 21.316502 24.652503 31.324503 37.996507 44.668508 48.00451">Stage 7</tspan></text>
<text xml:space="preserve" transform="matrix(.7192982 0 0 .7192982 695.56137 123.71928)" font-size="12" font-family="Helvetica"><tspan y="25" x=".421875 9.757875 16.429877 19.765877 26.437878 33.10988 36.445878 39.781877 50.89453 54.89053 57.55453 60.890535">Output Write</tspan></text>
<path transform="matrix(.7192982,0,0,.7192982,.3596491,.3596491)" stroke-width="1" stroke-linecap="butt" stroke-miterlimit="10" stroke-linejoin="miter" fill="none" stroke="#000000" d="M 908 185 L 934.63 185 "/>
<path transform="matrix(.7192982,0,0,.7192982,.3596491,.3596491)" d="M 939.88 185 L 932.88 188.5 L 934.63 185 L 932.88 181.5 L 939.88 185 Z "/>
<path transform="matrix(.7192982,0,0,.7192982,.3596491,.3596491)" stroke-width="1" stroke-linecap="butt" stroke-miterlimit="10" stroke-linejoin="miter" fill="none" stroke="#000000" d="M 939.88 185 L 932.88 188.5 L 934.63 185 L 932.88 181.5 L 939.88 185 Z "/>
<path transform="matrix(.7192982,0,0,.7192982,.3596491,.3596491)" d="M 788 155 L 908 155 L 908 215 L 788 215 Z " fill="#ffffff"/>
<path transform="matrix(.7192982,0,0,.7192982,.3596491,.3596491)" stroke-width="1" stroke-linecap="butt" stroke-miterlimit="4" stroke-linejoin="miter" fill="none" stroke="#000000" d="M 788 155 L 908 155 L 908 215 L 788 215 Z "/>
<text xml:space="preserve" transform="matrix(.7192982 0 0 .7192982 574.71926 118.684207)" font-size="12" font-family="Helvetica"><tspan y="11" x="29.3125 37.3165 40.652505 47.324506 53.996507 60.668508 64.00451">Stage 6</tspan></text>
<text xml:space="preserve" transform="matrix(.7192982 0 0 .7192982 574.71926 118.684207)" font-size="12" font-family="Helvetica"><tspan y="25" x="14.3125 22.316502 28.988503 32.3245 34.988504 38.3245 44.3245 47.6605 54.3325 56.996503 63.668504 69.6685 72.332508 79.0045">Entity Linking</tspan></text>
<text xml:space="preserve" transform="matrix(.7192982 0 0 .7192982 574.71926 118.684207)" font-size="12" font-family="Helvetica"><tspan y="39" x=".625 10.621 17.293002 23.965003 30.637003 33.301004 39.973005 46.645006 49.981004 57.985006 64.657009 67.32101 73.99301 79.99301 83.32901 85.99301 92.66501">Mapping Selection</tspan></text>
<path transform="matrix(.7192982,0,0,.7192982,.3596491,.3596491)" stroke-width="1" stroke-linecap="butt" stroke-miterlimit="10" stroke-linejoin="miter" fill="none" stroke="#000000" d="M 581 31 L 627.63 31 "/>
<path transform="matrix(.7192982,0,0,.7192982,.3596491,.3596491)" d="M 632.88 31 L 625.88 34.5 L 627.63 31 L 625.88 27.5 L 632.88 31 Z "/>
<path transform="matrix(.7192982,0,0,.7192982,.3596491,.3596491)" stroke-width="1" stroke-linecap="butt" stroke-miterlimit="10" stroke-linejoin="miter" fill="none" stroke="#000000" d="M 632.88 31 L 625.88 34.5 L 627.63 31 L 625.88 27.5 L 632.88 31 Z "/>
<path transform="matrix(.7192982,0,0,.7192982,.3596491,.3596491)" d="M 461 1 L 581 1 L 581 61 L 461 61 Z " fill="#ffffff"/>
<path transform="matrix(.7192982,0,0,.7192982,.3596491,.3596491)" stroke-width="1" stroke-linecap="butt" stroke-miterlimit="4" stroke-linejoin="miter" fill="none" stroke="#000000" d="M 461 1 L 581 1 L 581 61 L 461 61 Z "/>
<text xml:space="preserve" transform="matrix(.7192982 0 0 .7192982 362.52629 17.982455)" font-size="12" font-family="Helvetica"><tspan y="11" x=".3125 4.3085005 10.980501 17.652503 20.988503 26.988503">run.sh</tspan></text>
</g>
<clipPath id="cp2">
<path transform="matrix(.24,0,0,.24,0,0)" d="M 62.93859 272.7339 L 356.53215 272.7339 L 356.53215 425.58479 L 62.93859 425.58479 Z " fill-rule="evenodd"/>
</clipPath>
<g clip-path="url(#cp2)">
<path transform="matrix(.022659,0,0,-.022717495,15.159522,102.14034)" d="M 2840.22 800.078 C 2837.54 805.801 2836.33 808.688 2834.8699 811.45706 C 2795.97 885.41409 2757.16 959.426 2717.91 1033.2001 C 2713.95 1040.6101 2714.44 1045.02 2719.8599 1051.3501 C 2781.73 1123.6301 2843.2799 1196.2001 2904.9 1268.7001 C 2907.0599 1271.2401 2909.01 1273.9601 2909.8399 1278.4801 C 2891.8199 1273.7702 2873.7999 1269.1201 2855.7999 1264.3501 C 2781.0399 1244.54 2706.2598 1224.79 2631.5699 1204.7101 C 2624.5999 1202.8401 2621.44 1204.8801 2617.9798 1210.65 C 2575.5299 1281.56 2532.8399 1352.3201 2490.1998 1423.11 C 2487.9898 1426.79 2485.6197 1430.36 2480.9298 1433.45 C 2477.4998 1414.5599 2474.0098 1395.6799 2470.6497 1376.7799 C 2458.7698 1310.0599 2446.9298 1243.32 2435.0897 1176.5899 C 2433.7996 1169.3899 2432.0196 1162.2199 2431.4097 1154.9598 C 2430.8096 1148.0698 2427.2799 1145.5298 2421.0496 1143.5698 C 2332.9395 1115.9098 2244.9195 1087.9799 2156.8997 1060.0798 C 2153.0296 1058.8599 2149.2598 1057.2798 2145.1097 1053.5099 C 2217.1197 1024.8899 2289.1297 996.2729 2362.2496 967.2149 C 2359.5897 965.1019 2357.8597 963.4769 2355.9095 962.2069 C 2310.8895 933.0779 2265.7994 904.0659 2220.8895 874.7849 C 2215.5194 871.2849 2211.2496 870.78897 2205.2095 873.50796 C 2151.4395 897.72299 2097.4595 921.4799 2043.6095 945.53097 C 2019.4295 956.32797 1997.6795 970.67196 1980.7395 991.38699 C 1942.4495 1038.23 1950.0095 1091.52 2001.0296 1124.07 C 2017.7295 1134.72 2036.6796 1142.71 2055.5897 1148.88 C 2141.8797 1176.99 2228.4996 1204.1 2315.0797 1231.3 C 2322.3297 1233.5701 2325.6998 1236.8201 2327.0496 1244.68 C 2338.5797 1311.4701 2350.5496 1378.1901 2362.5797 1444.88 C 2369.0196 1480.54 2372.4398 1517.12 2389.7996 1549.8 C 2396.4595 1562.3601 2404.4495 1574.67 2413.9495 1585.2001 C 2448.3096 1623.3401 2496.2796 1624.8201 2532.6195 1588.4801 C 2544.8795 1576.2201 2555.4295 1561.7501 2564.5394 1546.9102 C 2604.5794 1481.6401 2643.9593 1415.9502 2683.1295 1350.1502 C 2687.7593 1342.3701 2691.9395 1340.8002 2700.5093 1343.1001 C 2797.0494 1368.9801 2893.6893 1394.4601 2990.3294 1419.9901 C 3010.2593 1425.2501 3030.4195 1427.1901 3050.8795 1423.3601 C 3095.4195 1415.0202 3114.8895 1381.1101 3099.8194 1338.0901 C 3092.9593 1318.4801 3081.1295 1301.93 3067.8194 1286.29 C 3000.3895 1206.99 2933.0694 1127.6001 2865.4095 1048.5 C 2859.8795 1042.04 2859.7596 1037.36 2863.5894 1030.14 C 2903.9495 954.063 2943.9595 877.801 2984.1195 801.61306 C 2993.7296 783.37106 3001.0594 764.45309 3001.2794 743.512 C 3001.7593 695.883 2966.9293 656.906 2919.5994 649.969 C 2893.0894 646.074 2868.4595 651.738 2843.6195 659.41 C 2783.0894 678.121 2722.4495 696.51998 2661.7794 714.766 C 2656.1593 716.449 2654.0093 718.648 2653.0194 724.707 C 2646.0394 767.402 2638.4293 810.00399 2631.0694 852.641 C 2630.8594 853.813 2631.2093 855.078 2631.3895 857.688 C 2700.4595 838.633 2768.9295 819.746 2840.2196 800.078 " fill="#e25a1c" fill-rule="evenodd"/>
<path transform="matrix(.022659,0,0,-.022717495,15.159522,102.14034)" d="M 2722.2 178.23 C 2667.6099 178.328 2613.02 178.578 2558.42 178.359 C 2551.22 178.34 2547.13 180.441 2543.1099 186.56999 C 2478.48 285.012 2413.5599 383.262 2348.69 481.55097 C 2346.6199 484.67997 2344.42 487.69898 2340.75 492.96098 C 2326.78 386.80097 2313.13 283.01197 2299.45 178.96097 C 2251.68 178.96097 2204.8599 178.96097 2156.49 178.96097 C 2158.16 192.89096 2159.63 206.35198 2161.39 219.76197 C 2175.3499 326.35197 2189.3599 432.94099 2203.3699 539.51998 C 2216.7498 641.35897 2230.0899 743.199 2243.67 845.01998 C 2244.0699 848.05899 2246.0899 851.89498 2248.5699 853.50796 C 2297.7598 885.5819 2347.1199 917.3789 2396.4798 949.1989 C 2397.1998 949.6679 2398.1998 949.7229 2400.7498 950.4449 C 2385.8199 836.57388 2370.9998 723.5939 2356.1798 610.6089 C 2356.7698 610.2109 2357.3497 609.8089 2357.9398 609.3979 C 2435.3797 695.2419 2512.8297 781.0859 2591.9398 868.7699 C 2594.2298 855.5699 2596.2098 844.2729 2598.1497 832.9689 C 2603.6998 800.60189 2609.0198 768.18789 2614.9598 735.88687 C 2616.1597 729.37887 2614.4298 725.3278 2610.0897 720.80087 C 2560.0096 668.39089 2510.1197 615.80087 2460.1898 563.26187 C 2458.0098 560.9688 2455.9197 558.58987 2453.4398 555.87088 C 2455.0299 553.3198 2456.3897 550.87088 2457.9998 548.60189 C 2544.1297 427.71089 2630.2598 306.83988 2716.4598 185.99988 C 2718.0198 183.80889 2720.2698 182.08988 2722.1998 180.14788 C 2722.1998 179.51187 2722.1998 178.87088 2722.1998 178.22988 " fill="#3c3a3e" fill-rule="evenodd"/>
<path transform="matrix(.022659,0,0,-.022717495,15.159522,102.14034)" d="M 1027.64 492.488 C 1025.46 503.629 1023.9 519.98806 1018.95 535.27 C 995.012 609.141 919.215 649.648 840.762 631.387 C 754.69906 611.359 693.195 543.69906 684.297 455.87904 C 677.711 390.92204 712.691 328.34004 777.73 304.85206 C 830.12899 285.92207 880.578 293.84007 927.41799 321.93006 C 989.50399 359.18006 1023.18 414.48005 1027.64 492.48805 L 1027.64 492.488 Z M 649.703 217.922 C 645.457 186.141 641.406 156.191 637.465 126.219 C 632.23 86.3789 627.008 46.5313 621.992 6.67188 C 621.406 2.01953 619.996 -.03125 615 0 C 575.73 .160156 536.461 .12109401 497.195 .17968802 C 496.301 .17968802 495.406 .671875 493.277 1.2695299 C 495.652 20.0781 497.961 38.941404 500.43 57.7891 C 509.094 123.871 517.738 189.961 526.531 256.031 C 536.586 331.578 544.551 407.488 557.426 482.55104 C 580.23007 615.465 692.98806 730.00808 825.30508 758.52706 C 902.01608 775.07406 975.43008 767.418 1042.4 724.254 C 1109.1901 681.20706 1147.5 618.73806 1156.23 540.16006 C 1168.58 429.05903 1127.69 336.82804 1048.77 260.53105 C 996.97708 210.44104 934.965 178.60904 863.438 167.85204 C 789.75399 156.73804 720.492 169.03104 658.336 212.46904 C 656.051 214.05904 653.613 215.44904 649.703 217.92205 " fill="#3c3a3e" fill-rule="evenodd"/>
<path transform="matrix(.022659,0,0,-.022717495,15.159522,102.14034)" d="M 585.711 849.512 C 541.672 816.72708 499.215 785.125 456.574 753.38308 C 449.703 764.22708 443.547 775.02706 436.359 785.07809 C 417.859 810.93008 394.883 830.2461 361.46504 832.5901 C 333.67204 834.53909 309.90205 825.3831 290.984 804.8911 C 274.06303 786.5661 271.85203 760.5121 287.664 739.8161 C 305.07 717.0351 324.121 695.4221 343.574 674.3321 C 375.82 639.3711 409.527 605.7501 441.566 570.6021 C 470.719 538.6291 493.957 502.75013 501.133 459.03114 C 509.668 407.05915 499.301 357.55915 474.715 311.87916 C 429.219 227.35214 357.574 178.30915 262.992 162.96115 C 221.223 156.19115 179.56601 157.53916 138.809 169.53916 C 84.7188 185.461 47.0703 220.91 22.8594 270.969 C 14.3047 288.668 7.76172 307.34 0 326.309 C 47.3555 351.64799 93.3555 376.27 140.031 401.25 C 141.66 397.359 142.79701 394.121 144.31601 391.09 C 152.27301 375.16 158.789 358.238 168.64801 343.578 C 197.88301 300.109 245.10501 286.879 293.01203 308.371 C 305.316 313.891 317.16804 321.68 327.26203 330.629 C 358.13304 358.031 363.92204 396.18 341.07005 430.66 C 327.94105 450.469 311.52006 468.23 295.53504 485.98 C 257.33204 528.41006 217.57404 569.48 180.25403 612.672 C 154.52703 642.441 137.04703 677.16 131.51602 717.035 C 125.47302 760.56997 134.18003 801.652 156.83603 838.305 C 213.16004 929.41 295.00804 976.805 403.26603 972.879 C 464.984 970.64108 514.129 941.781 552.27706 893.828 C 563.56607 879.645 574.145 864.895 585.71109 849.512 " fill="#3c3a3e" fill-rule="evenodd"/>
<path transform="matrix(.022659,0,0,-.022717495,15.159522,102.14034)" d="M 1631.44 360.398 C 1624.2599 305.52003 1617.49 253.35901 1610.45 201.238 C 1610.09 198.602 1608.0199 195.01201 1605.7699 193.96102 C 1499.21 144.60901 1358.8899 151.50002 1271.3799 250.87902 C 1224.3599 304.27003 1204.6299 367.64103 1207.5798 438.141 C 1214.3998 601.33999 1349.7098 743.80899 1511.5198 763.71499 C 1606.0598 775.34799 1688.9697 749.813 1753.0198 676.375 C 1796.6398 626.344 1816.8198 566.602 1813.8397 500.672 C 1811.8798 457.121 1805.0497 413.762 1799.6298 370.41 C 1791.9497 309.012 1783.5598 247.69101 1775.4497 186.34 C 1775.1597 184.16 1774.7197 182 1774.2297 179.23 C 1732.0398 179.23 1690.0997 179.23 1646.7498 179.23 C 1648.4497 193.328 1649.9998 207.129 1651.7898 220.898 C 1661.0198 291.762 1671.1698 362.512 1679.2598 433.5 C 1684.2998 477.711 1681.1298 521.58999 1660.9098 562.539 C 1639.3998 606.059 1603.3399 629.078 1555.9098 634.109 C 1457.7498 644.5 1364.3598 576.289 1343.4198 479.691 C 1329.5899 415.922 1351.3898 354.80104 1402.1698 321.01203 C 1451.6698 288.07804 1504.6798 287.96903 1558.6198 309.32804 C 1585.9697 320.14805 1609.2698 337.28105 1631.4397 360.39805 " fill="#3c3a3e" fill-rule="evenodd"/>
<path transform="matrix(.022659,0,0,-.022717495,15.159522,102.14034)" d="M 2168.23 751.324 C 2162.41 707.125 2156.68 663.586 2150.82 619.14498 C 2123.87 619.14498 2097.4403 619.30099 2071.02 619.08999 C 2049.61 618.92196 2030.0701 605.102 2023.64 585.10897 C 2021.12 577.28897 2020.1901 568.92196 2019.11 560.71896 C 2005.7 459.22993 1992.39 357.7379 1979.08 256.23796 C 1975.72 230.64795 1972.45 205.03894 1969.09 179.05895 C 1924.87 179.05895 1881.28 179.05895 1836.3999 179.05895 C 1838.8799 198.57794 1841.2199 217.46094 1843.69 236.31995 C 1852.32 302.10194 1860.95 367.85896 1869.69 433.60896 C 1877.24 490.51197 1883.97 547.53897 1892.86 604.23 C 1904.78 680.227 1980.39 747.71499 2057.08 751.05099 C 2093.6702 752.641 2130.3902 751.324 2168.23 751.324 " fill="#3c3a3e" fill-rule="evenodd"/>
<path transform="matrix(.022659,0,0,-.022717495,15.159522,102.14034)" d="M 2878.63 179.059 L 2878.63 235.07 L 2878.3099 235.07 L 2856.3299 179.059 L 2849.3199 179.059 L 2827.3399 235.07 L 2827.0098 235.07 L 2827.0098 179.059 L 2815.9398 179.059 L 2815.9398 246.14801 L 2833.0299 246.14801 L 2853.0599 195.18001 L 2872.7698 246.14801 L 2889.7098 246.14801 L 2889.7098 179.05902 L 2878.6297 179.05902 L 2878.63 179.059 Z M 2781.25 237.18001 L 2781.25 179.059 L 2770.18 179.059 L 2770.18 237.18001 L 2749.17 237.18001 L 2749.17 246.14801 L 2802.26 246.14801 L 2802.26 237.18001 L 2781.25 237.18001 " fill="#3c3a3e"/>
<path transform="matrix(.022659,0,0,-.022717495,15.159522,102.14034)" d="M 763.457 943.719 L 796.355 943.719 L 788.59799 993.527 L 763.457 943.719 Z M 801.51998 911.539 L 746.785 911.539 L 729.39797 877.48 L 690.63699 877.48 L 776.13699 1037.21 L 813.50399 1037.21 L 842.61697 877.48 L 806.68399 877.48 L 801.51998 911.539 " fill="#3c3a3e"/>
<path transform="matrix(.022659,0,0,-.022717495,15.159522,102.14034)" d="M 997.352 1005.04 L 977.852 1005.04 L 971.289 968.164 L 990.773 968.164 C 1002.53 968.164 1011.93 975.902 1011.93 990.477 C 1011.93 1000.11 1006.04 1005.04 997.352 1005.04 Z M 950.13699 1037.21 L 1001.36 1037.21 C 1028.14 1037.21 1046.92 1021.24 1046.92 993.766 C 1046.92 959.23 1022.49008 935.984 987.723 935.984 L 965.648 935.984 L 955.301 877.48 L 921.961 877.48 L 950.137 1037.21 " fill="#3c3a3e"/>
<path transform="matrix(.022659,0,0,-.022717495,15.159522,102.14034)" d="M 1160.22 943.719 L 1193.12 943.719 L 1185.36 993.527 L 1160.22 943.719 Z M 1198.28 911.539 L 1143.55 911.539 L 1126.16 877.48 L 1087.4 877.48 L 1172.9 1037.21 L 1210.26 1037.21 L 1239.38 877.48 L 1203.45 877.48 L 1198.2799 911.539 " fill="#3c3a3e"/>
<path transform="matrix(.022659,0,0,-.022717495,15.159522,102.14034)" d="M 1414.67 883.125 C 1403.4 877.961 1390.9601 874.891 1378.5 874.891 C 1336.23 874.891 1309.67 906.613 1309.67 946.313 C 1309.67 997.05899 1352.42 1039.8099 1403.17 1039.8099 C 1415.8501 1039.8099 1427.37 1036.7599 1436.76 1031.59 L 1432.06 993.28897 C 1425.02 1001.0499 1413.7301 1006.44998 1399.64 1006.44998 C 1370.52 1006.44998 1344.68 980.12899 1344.68 949.6019 C 1344.68 926.3519 1359.2401 908.2459 1382.27 908.2459 C 1396.37 908.2459 1409.98 913.6519 1419.14 921.1679 L 1414.67 883.1249 " fill="#3c3a3e"/>
<path transform="matrix(.022659,0,0,-.022717495,15.159522,102.14034)" d="M 1618.52 941.848 L 1548.99 941.848 L 1537.7 877.48007 L 1504.36 877.48007 L 1532.54 1037.2101 L 1565.9 1037.2101 L 1554.63 974.0271 L 1624.16 974.0271 L 1635.42 1037.2101 L 1668.78 1037.2101 L 1640.61 877.4801 L 1607.25 877.4801 L 1618.52 941.8481 " fill="#3c3a3e"/>
<path transform="matrix(.022659,0,0,-.022717495,15.159522,102.14034)" d="M 1740.85 877.48 L 1769.02 1037.21 L 1857.59 1037.21 L 1851.95 1005.04 L 1796.74 1005.04 L 1791.12 974.027 L 1841.84 974.027 L 1836.22 941.84799 L 1785.47 941.84799 L 1779.83 909.66397 L 1835.0399 909.66397 L 1829.3999 877.4799 L 1740.8499 877.4799 " fill="#3c3a3e"/>
</g>
<clipPath id="cp3">
<path transform="matrix(.24,0,0,.24,0,0)" d="M 0 0 L 3245.833 0 L 3245.833 1117.9093 L 0 1117.9093 Z " fill-rule="evenodd"/>
</clipPath>
<g clip-path="url(#cp3)">
<path transform="matrix(.7192982,0,0,.7192982,.3596491,.3596491)" stroke-width="1" stroke-linecap="butt" stroke-miterlimit="10" stroke-linejoin="miter" fill="none" stroke="#000000" d="M 408 31 L 454.63 31 "/>
<path transform="matrix(.7192982,0,0,.7192982,.3596491,.3596491)" d="M 459.88 31 L 452.88 34.5 L 454.63 31 L 452.88 27.5 L 459.88 31 Z "/>
<path transform="matrix(.7192982,0,0,.7192982,.3596491,.3596491)" stroke-width="1" stroke-linecap="butt" stroke-miterlimit="10" stroke-linejoin="miter" fill="none" stroke="#000000" d="M 459.88 31 L 452.88 34.5 L 454.63 31 L 452.88 27.5 L 459.88 31 Z "/>
<path transform="matrix(.7192982,0,0,.7192982,.3596491,.3596491)" d="M 408 31 C 408 32.313219 407.8719 33.61382 407.6157 34.901803 C 407.3595 36.189786 406.9801 37.440408 406.47758 38.653665 C 405.975 39.866918 405.35896 41.019498 404.62937 42.1114 C 403.89979 43.2033 403.07069 44.213548 402.14213 45.14213 C 401.2135 46.070718 400.20326 46.8998 399.11137 47.629388 C 398.01945 48.35897 396.86686 48.975038 395.6536 49.477586 C 394.44038 49.980134 393.18977 50.359506 391.90177 50.6157 C 390.6138 50.8719 389.3132 51 388 51 C 386.6868 51 385.3862 50.871904 384.0982 50.615705 C 382.8102 50.359506 381.5596 49.980134 380.34635 49.47759 C 379.13307 48.97504 377.9805 48.358976 376.8886 47.629388 C 375.7967 46.8998 374.78645 46.070718 373.85786 45.14213 C 372.92924 44.213548 372.10014 43.2033 371.37055 42.111398 C 370.64097 41.019498 370.02494 39.866918 369.5224 38.653665 C 369.01985 37.440408 368.64048 36.189786 368.38429 34.901803 C 368.12809 33.61382 367.99998 32.313219 368 31 C 367.99998 29.686779 368.12809 28.386176 368.38429 27.09819 C 368.64048 25.810206 369.01985 24.559584 369.5224 23.346329 C 370.02494 22.133074 370.64097 20.980496 371.37055 19.888594 C 372.10014 18.796692 372.92924 17.78645 373.85786 16.857865 C 374.78645 15.929278 375.7967 15.100192 376.88859 14.370606 C 377.98048 13.641021 379.13304 13.024955 380.3463 12.522408 C 381.5596 12.019861 382.8102 11.640491 384.09819 11.3842949 C 385.38618 11.1280989 386.6868 11 388 11 C 389.3132 11 390.6138 11.1280989 391.90177 11.3842949 C 393.18977 11.640491 394.44038 12.019861 395.6536 12.522408 C 396.86686 13.024955 398.01945 13.641021 399.11137 14.370606 C 400.20326 15.100192 401.2135 15.929278 402.14213 16.857865 C 403.07069 17.78645 403.89979 18.796692 404.62937 19.888594 C 405.35896 20.980496 405.975 22.133074 406.47758 23.346329 C 406.9801 24.559584 407.3595 25.810206 407.6157 27.09819 C 407.8719 28.386176 408 29.686779 408 31 Z " fill="#ffffff"/>
<path transform="matrix(.7192982,0,0,.7192982,.3596491,.3596491)" stroke-width="1" stroke-linecap="butt" stroke-miterlimit="4" stroke-linejoin="miter" fill="none" stroke="#000000" d="M 408 31 C 408 32.313219 407.8719 33.61382 407.6157 34.901803 C 407.3595 36.189786 406.9801 37.440408 406.47758 38.653665 C 405.975 39.866918 405.35896 41.019498 404.62937 42.1114 C 403.89979 43.2033 403.07069 44.213548 402.14213 45.14213 C 401.2135 46.070718 400.20326 46.8998 399.11137 47.629388 C 398.01945 48.35897 396.86686 48.975038 395.6536 49.477586 C 394.44038 49.980134 393.18977 50.359506 391.90177 50.6157 C 390.6138 50.8719 389.3132 51 388 51 C 386.6868 51 385.3862 50.871904 384.0982 50.615705 C 382.8102 50.359506 381.5596 49.980134 380.34635 49.47759 C 379.13307 48.97504 377.9805 48.358976 376.8886 47.629388 C 375.7967 46.8998 374.78645 46.070718 373.85786 45.14213 C 372.92924 44.213548 372.10014 43.2033 371.37055 42.111398 C 370.64097 41.019498 370.02494 39.866918 369.5224 38.653665 C 369.01985 37.440408 368.64048 36.189786 368.38429 34.901803 C 368.12809 33.61382 367.99998 32.313219 368 31 C 367.99998 29.686779 368.12809 28.386176 368.38429 27.09819 C 368.64048 25.810206 369.01985 24.559584 369.5224 23.346329 C 370.02494 22.133074 370.64097 20.980496 371.37055 19.888594 C 372.10014 18.796692 372.92924 17.78645 373.85786 16.857865 C 374.78645 15.929278 375.7967 15.100192 376.88859 14.370606 C 377.98048 13.641021 379.13304 13.024955 380.3463 12.522408 C 381.5596 12.019861 382.8102 11.640491 384.09819 11.3842949 C 385.38618 11.1280989 386.6868 11 388 11 C 389.3132 11 390.6138 11.1280989 391.90177 11.3842949 C 393.18977 11.640491 394.44038 12.019861 395.6536 12.522408 C 396.86686 13.024955 398.01945 13.641021 399.11137 14.370606 C 400.20326 15.100192 401.2135 15.929278 402.14213 16.857865 C 403.07069 17.78645 403.89979 18.796692 404.62937 19.888594 C 405.35896 20.980496 405.975 22.133074 406.47758 23.346329 C 406.9801 24.559584 407.3595 25.810206 407.6157 27.09819 C 407.8719 28.386176 408 29.686779 408 31 Z "/>
<path transform="matrix(.7192982,0,0,.7192982,.3596491,.3596491)" stroke-width="1" stroke-linecap="butt" stroke-miterlimit="10" stroke-linejoin="miter" fill="none" stroke="#000000" d="M 388 51 L 408 51 "/>
<path transform="matrix(.7192982,0,0,.7192982,.3596491,.3596491)" d="M 674 31 C 674 32.313219 673.8719 33.61382 673.6157 34.901803 C 673.3595 36.189786 672.9801 37.440408 672.47756 38.653665 C 671.97506 39.866918 671.35897 41.019498 670.6294 42.1114 C 669.8998 43.2033 669.0707 44.213548 668.1421 45.14213 C 667.2135 46.070718 666.20327 46.8998 665.11129 47.629388 C 664.0194 48.35897 662.8668 48.975038 661.65359 49.477586 C 660.4403 49.980134 659.1897 50.359506 657.90176 50.6157 C 656.6138 50.8719 655.3132 51 654 51 C 652.68679 51 651.38619 50.871904 650.09817 50.615705 C 648.8101 50.359506 647.5595 49.980134 646.34628 49.47759 C 645.13308 48.97504 643.98049 48.358976 642.8885 47.629388 C 641.79666 46.8998 640.7864 46.070718 639.8578 45.14213 C 638.9292 44.213548 638.1001 43.2033 637.3705 42.111398 C 636.6409 41.019498 636.02487 39.866918 635.5223 38.653665 C 635.0198 37.440408 634.6404 36.189786 634.38418 34.901803 C 634.128 33.61382 633.99996 32.313219 634 31 C 633.99996 29.686779 634.128 28.386176 634.38418 27.09819 C 634.6404 25.810206 635.0198 24.559584 635.5223 23.346329 C 636.02487 22.133074 636.6409 20.980496 637.3705 19.888594 C 638.1001 18.796692 638.9292 17.78645 639.8578 16.857865 C 640.7864 15.929278 641.79666 15.100192 642.88858 14.370606 C 643.98049 13.641021 645.13308 13.024955 646.34628 12.522408 C 647.5595 12.019861 648.8101 11.640491 650.09817 11.3842949 C 651.38619 11.1280989 652.68679 11 654 11 C 655.3132 11 656.6138 11.1280989 657.90176 11.3842949 C 659.1897 11.640491 660.4403 12.019861 661.65359 12.522408 C 662.8668 13.024955 664.0194 13.641021 665.11129 14.370606 C 666.20327 15.100192 667.2135 15.929278 668.1421 16.857865 C 669.0707 17.78645 669.8998 18.796692 670.6294 19.888594 C 671.35897 20.980496 671.97506 22.133074 672.47756 23.346329 C 672.9801 24.559584 673.3595 25.810206 673.6157 27.09819 C 673.8719 28.386176 674 29.686779 674 31 Z " fill="#ffffff"/>
<path transform="matrix(.7192982,0,0,.7192982,.3596491,.3596491)" stroke-width="1" stroke-linecap="butt" stroke-miterlimit="4" stroke-linejoin="miter" fill="none" stroke="#000000" d="M 674 31 C 674 32.313219 673.8719 33.61382 673.6157 34.901803 C 673.3595 36.189786 672.9801 37.440408 672.47756 38.653665 C 671.97506 39.866918 671.35897 41.019498 670.6294 42.1114 C 669.8998 43.2033 669.0707 44.213548 668.1421 45.14213 C 667.2135 46.070718 666.20327 46.8998 665.11129 47.629388 C 664.0194 48.35897 662.8668 48.975038 661.65359 49.477586 C 660.4403 49.980134 659.1897 50.359506 657.90176 50.6157 C 656.6138 50.8719 655.3132 51 654 51 C 652.68679 51 651.38619 50.871904 650.09817 50.615705 C 648.8101 50.359506 647.5595 49.980134 646.34628 49.47759 C 645.13308 48.97504 643.98049 48.358976 642.8885 47.629388 C 641.79666 46.8998 640.7864 46.070718 639.8578 45.14213 C 638.9292 44.213548 638.1001 43.2033 637.3705 42.111398 C 636.6409 41.019498 636.02487 39.866918 635.5223 38.653665 C 635.0198 37.440408 634.6404 36.189786 634.38418 34.901803 C 634.128 33.61382 633.99996 32.313219 634 31 C 633.99996 29.686779 634.128 28.386176 634.38418 27.09819 C 634.6404 25.810206 635.0198 24.559584 635.5223 23.346329 C 636.02487 22.133074 636.6409 20.980496 637.3705 19.888594 C 638.1001 18.796692 638.9292 17.78645 639.8578 16.857865 C 640.7864 15.929278 641.79666 15.100192 642.88858 14.370606 C 643.98049 13.641021 645.13308 13.024955 646.34628 12.522408 C 647.5595 12.019861 648.8101 11.640491 650.09817 11.3842949 C 651.38619 11.1280989 652.68679 11 654 11 C 655.3132 11 656.6138 11.1280989 657.90176 11.3842949 C 659.1897 11.640491 660.4403 12.019861 661.65359 12.522408 C 662.8668 13.024955 664.0194 13.641021 665.11129 14.370606 C 666.20327 15.100192 667.2135 15.929278 668.1421 16.857865 C 669.0707 17.78645 669.8998 18.796692 670.6294 19.888594 C 671.35897 20.980496 671.97506 22.133074 672.47756 23.346329 C 672.9801 24.559584 673.3595 25.810206 673.6157 27.09819 C 673.8719 28.386176 674 29.686779 674 31 Z "/>
<path transform="matrix(.7192982,0,0,.7192982,.3596491,.3596491)" stroke-width="1" stroke-linecap="butt" stroke-miterlimit="10" stroke-linejoin="miter" fill="none" stroke="#000000" d="M 654 51 L 674 51 "/>
<path transform="matrix(.7192982,0,0,.7192982,.3596491,.3596491)" stroke-width="1" stroke-linecap="butt" stroke-miterlimit="10" stroke-linejoin="miter" fill="none" stroke="#000000" d="M 571 270 L 571 221.37 "/>
<path transform="matrix(.7192982,0,0,.7192982,.3596491,.3596491)" d="M 571 216.12 L 574.5 223.12 L 571 221.37 L 567.5 223.12 L 571 216.12 Z "/>
<path transform="matrix(.7192982,0,0,.7192982,.3596491,.3596491)" stroke-width="1" stroke-linecap="butt" stroke-miterlimit="10" stroke-linejoin="miter" fill="none" stroke="#000000" d="M 571 216.12 L 574.5 223.12 L 571 221.37 L 567.5 223.12 L 571 216.12 Z "/>
<path transform="matrix(.7192982,0,0,.7192982,.3596491,.3596491)" d="M 511 311 L 511 271 C 511 265.48 524.43 261 541 261 C 557.57 261 571 265.48 571 271 L 571 311 C 571 316.52 557.57 321 541 321 C 524.43 321 511 316.52 511 311 Z " fill="#ffffff"/>
<path transform="matrix(.7192982,0,0,.7192982,.3596491,.3596491)" stroke-width="1" stroke-linecap="butt" stroke-miterlimit="10" stroke-linejoin="miter" fill="none" stroke="#000000" d="M 511 311 L 511 271 C 511 265.48 524.43 261 541 261 C 557.57 261 571 265.48 571 271 L 571 311 C 571 316.52 557.57 321 541 321 C 524.43 321 511 316.52 511 311 Z "/>
<path transform="matrix(.7192982,0,0,.7192982,.3596491,.3596491)" stroke-width="1" stroke-linecap="butt" stroke-miterlimit="10" stroke-linejoin="miter" fill="none" stroke="#000000" d="M 511 271 C 511 276.52 524.43 281 541 281 C 557.57 281 571 276.52 571 271 "/>
<path transform="matrix(.7192982,0,0,.7192982,.3596491,.3596491)" stroke-width="1" stroke-linecap="butt" stroke-miterlimit="10" stroke-linejoin="miter" fill="none" stroke="#000000" d="M 663.5 215 L 663.5 263.63 "/>
<path transform="matrix(.7192982,0,0,.7192982,.3596491,.3596491)" d="M 663.5 268.88 L 660 261.88 L 663.5 263.63 L 667 261.88 L 663.5 268.88 Z "/>
<path transform="matrix(.7192982,0,0,.7192982,.3596491,.3596491)" stroke-width="1" stroke-linecap="butt" stroke-miterlimit="10" stroke-linejoin="miter" fill="none" stroke="#000000" d="M 663.5 268.88 L 660 261.88 L 663.5 263.63 L 667 261.88 L 663.5 268.88 Z "/>
<path transform="matrix(.7192982,0,0,.7192982,.3596491,.3596491)" stroke-width="1" stroke-linecap="butt" stroke-miterlimit="10" stroke-linejoin="miter" fill="none" stroke="#000000" d="M 723.5 270 L 723.5 221.37 "/>
<path transform="matrix(.7192982,0,0,.7192982,.3596491,.3596491)" d="M 723.5 216.12 L 727 223.12 L 723.5 221.37 L 720 223.12 L 723.5 216.12 Z "/>
<path transform="matrix(.7192982,0,0,.7192982,.3596491,.3596491)" stroke-width="1" stroke-linecap="butt" stroke-miterlimit="10" stroke-linejoin="miter" fill="none" stroke="#000000" d="M 723.5 216.12 L 727 223.12 L 723.5 221.37 L 720 223.12 L 723.5 216.12 Z "/>
<path transform="matrix(.7192982,0,0,.7192982,.3596491,.3596491)" d="M 663.5 311 L 663.5 271 C 663.5 265.48 676.93 261 693.5 261 C 710.07 261 723.5 265.48 723.5 271 L 723.5 311 C 723.5 316.52 710.07 321 693.5 321 C 676.93 321 663.5 316.52 663.5 311 Z " fill="#ffffff"/>
<path transform="matrix(.7192982,0,0,.7192982,.3596491,.3596491)" stroke-width="1" stroke-linecap="butt" stroke-miterlimit="10" stroke-linejoin="miter" fill="none" stroke="#000000" d="M 663.5 311 L 663.5 271 C 663.5 265.48 676.93 261 693.5 261 C 710.07 261 723.5 265.48 723.5 271 L 723.5 311 C 723.5 316.52 710.07 321 693.5 321 C 676.93 321 663.5 316.52 663.5 311 Z "/>
<path transform="matrix(.7192982,0,0,.7192982,.3596491,.3596491)" stroke-width="1" stroke-linecap="butt" stroke-miterlimit="10" stroke-linejoin="miter" fill="none" stroke="#000000" d="M 663.5 271 C 663.5 276.52 676.93 281 693.5 281 C 710.07 281 723.5 276.52 723.5 271 "/>
<text xml:space="preserve" transform="matrix(.7192982 0 0 .7192982 353.8947 235.9298)" font-size="12" font-family="Helvetica"><tspan y="11" x="13.3125 21.316502 23.980502 30.652503 36.652505 39.988504 42.652505 48.652505 54.652505 61.324506 67.996509 71.99251 77.99251">Elasticsearch</tspan></text>
<text xml:space="preserve" transform="matrix(.7192982 0 0 .7192982 353.8947 235.9298)" font-size="12" font-family="Helvetica"><tspan y="25" x=".296875 4.2928755 11.624875 15.620875 22.292878 28.964879 35.63688 42.30888 48.30888 54.98088 58.31688 64.98888 71.66087 78.33287 85.00487 87.66887 93.66887">(Freebase Labels)</tspan></text>
<text xml:space="preserve" transform="matrix(.7192982 0 0 .7192982 486.24555 240.96489)" font-size="12" font-family="Helvetica"><tspan y="11" x=".53125 7.421875 11.417875 14.081876 20.753876 27.425877 34.097879">Trident</tspan></text>
</g>
<clipPath id="cp4">
<path transform="matrix(.24,0,0,.24,0,0)" d="M 1565.972 848.1724 L 1670.8698 848.1724 L 1670.8698 953.07009 L 1565.972 953.07009 Z " fill-rule="evenodd"/>
</clipPath>
<g clip-path="url(#cp4)">
<path transform="matrix(.098341558,0,0,.098341558,375.83329,203.56137)" d="M 255.96 134.393 C 255.96 112.87201 242.587 94.276 222.737 86.963008 C 223.57952 82.40461 223.9972 77.80761 223.99002 73.172008 C 223.99 33.263006 191.604 .87700656 151.695 .87700656 C 128.50202 .87700656 106.772 11.951007 93.19 30.965006 C 86.504009 25.741005 78.355 23.025006 69.788 23.025006 C 48.684003 23.025006 31.342003 40.158006 31.342003 61.471006 C 31.342003 66.06801 32.178 70.66501 33.640005 74.844 C 13.582 81.739 0 100.962 0 122.274 C 0 143.796 13.373 162.601 33.431 169.914 C 32.596 174.302 32.178 178.899 32.178 183.704 C 32.178 223.40399 64.564 255.79099 104.264 255.79099 C 127.666 255.79099 149.188 244.50798 162.769 225.70299 C 169.455 230.926 177.813 233.85199 186.38 233.85199 C 207.48401 233.85199 224.826 216.71799 224.826 195.40599 C 224.826 190.80899 223.99 186.21199 222.528 182.03299 C 242.168 174.92899 255.959 155.706 255.959 134.39299 L 255.96 134.393 Z " fill="#ffffff"/>
<path transform="matrix(.098341558,0,0,.098341558,375.83329,203.56137)" d="M 100.085 110.364 L 157.12799 136.483 L 214.797 85.918 C 215.63985 81.71113 216.05751 77.46246 216.05002 73.172 C 216.05 37.651998 187.216 8.816994 151.695 8.816994 C 130.382 8.816994 110.533008 19.263993 98.62301 36.814996 L 89.01101 86.545 L 100.08501 110.365 L 100.085 110.364 Z " fill="#f4bd19"/>
<path transform="matrix(.098341558,0,0,.098341558,375.83329,203.56137)" d="M 40.953 170.75 C 40.118 174.929 39.7 179.317 39.7 183.705 C 39.7 219.225 68.743 248.26902 104.26401 248.26902 C 125.78601 248.26902 145.63602 237.613 157.75402 220.061 L 167.15702 170.332 L 154.41101 146.094 L 97.16001 119.976 L 40.95301 170.75 L 40.953 170.75 Z " fill="#3cbeb1"/>
<path transform="matrix(.098341558,0,0,.098341558,375.83329,203.56137)" d="M 40.536 71.918 L 79.609 81.112 L 88.384 36.606 C 82.952 32.427 76.474 30.338 69.579 30.338 C 52.654005 30.338 38.655004 44.128 38.655004 61.262 C 38.655004 64.814 39.282 68.575008 40.535005 71.918 L 40.536 71.918 Z " fill="#e9478c"/>
<path transform="matrix(.098341558,0,0,.098341558,375.83329,203.56137)" d="M 37.192 81.32 C 19.641 86.962 7.5220015 103.887 7.5220015 122.274 C 7.5220015 140.244 18.596 156.33301 35.312005 162.601 L 90.265 112.871 L 80.235 91.351 L 37.192 81.321 L 37.192 81.32 Z " fill="#2c458f"/>
<path transform="matrix(.098341558,0,0,.098341558,375.83329,203.56137)" d="M 167.784 219.852 C 173.216 224.032 179.694 226.33 186.38 226.33 C 203.30501 226.33 217.304 212.54001 217.304 195.406 C 217.304 191.645 216.677 188.09201 215.424 184.74901 L 176.351 175.55602 L 167.784 219.85202 L 167.784 219.852 Z " fill="#95c63d"/>
<path transform="matrix(.098341558,0,0,.098341558,375.83329,203.56137)" d="M 175.724 165.317 L 218.767 175.347 C 236.318 169.497 248.437 152.781 248.437 134.393 C 248.437 116.423007 237.36299 100.54401 220.647 94.067 L 164.232 143.378 L 175.724 165.31801 L 175.724 165.317 Z " fill="#176655"/>
</g>
<clipPath id="cp5">
<path transform="matrix(.24,0,0,.24,0,0)" d="M 0 0 L 3245.833 0 L 3245.833 1117.9093 L 0 1117.9093 Z " fill-rule="evenodd"/>
</clipPath>
<g clip-path="url(#cp5)">
<text xml:space="preserve" transform="matrix(.7192982 0 0 .7192982 261.10523 39.5614)" font-size="12" font-family="Helvetica"><tspan y="11" x=".3125 4.9805 8.316501 16.980502 23.652503 27.648503 33.648504 36.984506 43.656507">*.warc.gz</tspan></text>
<text xml:space="preserve" transform="matrix(.7192982 0 0 .7192982 451.71925 39.5614)" font-size="12" font-family="Helvetica"><tspan y="11" x=".484375 7.156376 13.828377 17.164378 23.836379 30.508379 33.84438 37.18038 40.51638 46.51638">output.tsv</tspan></text>
</g>
</g>
</svg>
